<?xml version="1.0" encoding="UTF-8"?>
<svg width="14px" height="14px" viewBox="0 0 14 14" version="1.1" xmlns="http://www.w3.org/2000/svg" xmlns:xlink="http://www.w3.org/1999/xlink">
    <title>1</title>
    <g id="页面-1备份" stroke="none" stroke-width="1" fill-rule="evenodd">
        <g id="16系统设置-工单管理-详情4" transform="translate(-756, -28)"  fill-rule="nonzero">
            <g id="编组-2" transform="translate(745, 0)">
                <path d="M18,28 C21.8659932,28 25,31.1340068 25,35 C25,38.8659932 21.8659932,42 18,42 C14.1340068,42 11,38.8659932 11,35 C11,31.1340068 14.1340068,28 18,28 Z M18,29 C14.6862915,29 12,31.6862915 12,35 C12,38.3137085 14.6862915,41 18,41 C21.3137085,41 24,38.3137085 24,35 C24,31.6862915 21.3137085,29 18,29 Z M19.0351562,31.42 L19.0351562,38.5782031 L18.234375,38.5782031 L18.234375,32.5283984 C18.172526,32.5902474 18.082194,32.6610482 17.9633789,32.7408008 C17.8445638,32.8205534 17.7111003,32.8994922 17.5629883,32.9776172 C17.4148763,33.0557422 17.2586263,33.1289844 17.0942383,33.1973438 C16.9298503,33.2657031 16.7695312,33.3194141 16.6132812,33.3584766 L16.6132812,32.5479297 C16.7890625,32.4991016 16.9754232,32.4331836 17.1723633,32.3501758 C17.3693034,32.267168 17.5629883,32.1743945 17.753418,32.0718555 C17.9438477,31.9693164 18.1236979,31.8618945 18.2929688,31.7495898 C18.4622396,31.6372852 18.608724,31.5274219 18.7324219,31.42 L19.0351562,31.42 Z" id="1"></path>
            </g>
        </g>
    </g>
</svg>
