<?xml version="1.0" encoding="UTF-8"?>
<svg width="14px" height="14px" viewBox="0 0 14 14" version="1.1" xmlns="http://www.w3.org/2000/svg" xmlns:xlink="http://www.w3.org/1999/xlink">
    <title>2</title>
    <g id="页面-1备份" stroke="none" stroke-width="1" fill-rule="evenodd">
        <g id="16系统设置-工单管理-详情4" transform="translate(-876, -28)" fill-rule="nonzero">
            <g id="编组-2备份" transform="translate(745, 0)">
                <g transform="translate(120, 0)">
                    <path d="M18,28 C21.8659932,28 25,31.1340068 25,35 C25,38.8659932 21.8659932,42 18,42 C14.1340068,42 11,38.8659932 11,35 C11,31.1340068 14.1340068,28 18,28 Z M18,29 C14.6862915,29 12,31.6862915 12,35 C12,38.3137085 14.6862915,41 18,41 C21.3137085,41 24,38.3137085 24,35 C24,31.6862915 21.3137085,29 18,29 Z M17.8558984,31.3808594 C18.1423568,31.3808594 18.4076562,31.4223633 18.6517969,31.5053711 C18.8959375,31.5883789 19.107526,31.7096354 19.2865625,31.8691406 C19.465599,32.0286458 19.6063867,32.2255859 19.7089258,32.4599609 C19.8114648,32.6943359 19.8627344,32.9628906 19.8627344,33.265625 C19.8627344,33.5423177 19.8309961,33.7929688 19.7675195,34.0175781 C19.704043,34.2421875 19.6080143,34.453776 19.4794336,34.6523438 C19.3508529,34.8509115 19.1889062,35.0413411 18.9935937,35.2236328 C18.7982812,35.4059245 18.5687891,35.5914714 18.3051172,35.7802734 C17.9763411,36.0146484 17.7053451,36.2148438 17.4921289,36.3808594 C17.2789128,36.546875 17.1096419,36.7023112 16.9843164,36.847168 C16.8589909,36.9920247 16.7711003,37.1368815 16.7206445,37.2817383 C16.6701888,37.4265951 16.6449609,37.5934245 16.6449609,37.7822266 L20.1312891,37.7822266 L20.1312891,38.5 L15.81,38.5 L15.81,38.1533203 C15.81,37.8538411 15.8425521,37.5901693 15.9076562,37.3623047 C15.9727604,37.1344401 16.0801823,36.9179688 16.2299219,36.7128906 C16.3796615,36.5078125 16.5757878,36.3027344 16.8183008,36.0976562 C17.0608138,35.8925781 17.3578516,35.6614583 17.7094141,35.4042969 C17.9633203,35.2220052 18.1757227,35.0478516 18.3466211,34.8818359 C18.5175195,34.7158203 18.6550521,34.5498047 18.7592187,34.3837891 C18.8633854,34.2177734 18.9374414,34.0493164 18.9813867,33.878418 C19.025332,33.7075195 19.0473047,33.5260417 19.0473047,33.3339844 C19.0473047,33.1191406 19.0139388,32.9319661 18.947207,32.7724609 C18.8804753,32.6129557 18.7893294,32.480306 18.6737695,32.3745117 C18.5582096,32.2687174 18.4223047,32.1897786 18.2660547,32.1376953 C18.1098047,32.085612 17.9405339,32.0595703 17.7582422,32.0595703 C17.6019922,32.0595703 17.4489974,32.0807292 17.2992578,32.1230469 C17.1495182,32.1653646 17.0038477,32.2239583 16.8622461,32.2988281 C16.7206445,32.3736979 16.5839258,32.4632161 16.4520898,32.5673828 C16.3202539,32.6715495 16.1973698,32.7871094 16.0834375,32.9140625 L16.0834375,32.0546875 C16.3080469,31.8365885 16.5595117,31.6697591 16.837832,31.5541992 C17.1161523,31.4386393 17.4555078,31.3808594 17.8558984,31.3808594 Z" id="2"></path>
                </g>
            </g>
        </g>
    </g>
</svg>
