<?xml version="1.0" encoding="UTF-8"?>
<svg width="14px" height="14px" viewBox="0 0 14 14" version="1.1" xmlns="http://www.w3.org/2000/svg" xmlns:xlink="http://www.w3.org/1999/xlink">
    <title>3</title>
    <g id="页面-1备份" stroke="none" stroke-width="1" fill-rule="evenodd">
        <g id="16系统设置-工单管理-详情4" transform="translate(-996, -28)" fill-rule="nonzero">
            <g id="编组-2备份-2" transform="translate(745, 0)">
                <g transform="translate(240, 0)">
                    <path d="M18,28 C21.8659932,28 25,31.1340068 25,35 C25,38.8659932 21.8659932,42 18,42 C14.1340068,42 11,38.8659932 11,35 C11,31.1340068 14.1340068,28 18,28 Z M18,29 C14.6862915,29 12,31.6862915 12,35 C12,38.3137085 14.6862915,41 18,41 C21.3137085,41 24,38.3137085 24,35 C24,31.6862915 21.3137085,29 18,29 Z M17.9609375,31.3808594 C18.2539062,31.3808594 18.5192057,31.4215495 18.7568359,31.5029297 C18.9944661,31.5843099 19.1979167,31.6982422 19.3671875,31.8447266 C19.5364583,31.9912109 19.6674805,32.1669922 19.7602539,32.3720703 C19.8530273,32.5771484 19.8994141,32.8033854 19.8994141,33.0507812 C19.8994141,33.9720052 19.4339193,34.5644531 18.5029297,34.828125 L18.5029297,34.8476562 C18.7405599,34.8736979 18.9602865,34.9314779 19.1621094,35.0209961 C19.3639323,35.1105143 19.5380859,35.226888 19.6845703,35.3701172 C19.8310547,35.5133464 19.9458008,35.6818034 20.0288086,35.8754883 C20.1118164,36.0691732 20.1533203,36.2832031 20.1533203,36.5175781 C20.1533203,36.8333333 20.0939128,37.1206055 19.9750977,37.3793945 C19.8562826,37.6381836 19.6886393,37.8595378 19.472168,38.043457 C19.2556966,38.2273763 18.9960938,38.3697917 18.6933594,38.4707031 C18.390625,38.5716146 18.0569661,38.6220703 17.6923828,38.6220703 C17.0250651,38.6220703 16.4944661,38.4951172 16.1005859,38.2412109 L16.1005859,37.3818359 C16.5725911,37.7529297 17.1129557,37.9384766 17.7216797,37.9384766 C17.9658203,37.9384766 18.1863607,37.9075521 18.3833008,37.8457031 C18.5802409,37.7838542 18.7495117,37.6943359 18.8911133,37.5771484 C19.0327148,37.4599609 19.1417643,37.3183594 19.2182617,37.1523438 C19.2947591,36.9863281 19.3330078,36.7991536 19.3330078,36.5908203 C19.3330078,35.6761068 18.6819661,35.21875 17.3798828,35.21875 L16.7988281,35.21875 L16.7988281,34.5400391 L17.3505859,34.5400391 C18.5029297,34.5400391 19.0791016,34.1103516 19.0791016,33.2509766 C19.0791016,32.4567057 18.6396484,32.0595703 17.7607422,32.0595703 C17.2659505,32.0595703 16.8020833,32.2255859 16.3691406,32.5576172 L16.3691406,31.78125 C16.8151042,31.5143229 17.3457031,31.3808594 17.9609375,31.3808594 Z" id="3"></path>
                </g>
            </g>
        </g>
    </g>
</svg>
