<?xml version="1.0" encoding="UTF-8"?>
<svg width="14px" height="14px" viewBox="0 0 14 14" version="1.1" xmlns="http://www.w3.org/2000/svg" xmlns:xlink="http://www.w3.org/1999/xlink">
    <title>4</title>
    <g id="页面-1备份" stroke="none" stroke-width="1" fill-rule="evenodd">
        <g id="16系统设置-工单管理-详情4" transform="translate(-1116, -28)" fill-rule="nonzero">
            <g id="编组-2备份-3" transform="translate(745, 0)">
                <g transform="translate(360, 0)">
                    <g id="编组" transform="translate(11, 28)">
                        <path d="M7,0 C10.8659932,0 14,3.13400675 14,7 C14,10.8659932 10.8659932,14 7,14 C3.13400675,14 0,10.8659932 0,7 C0,3.13400675 3.13400675,0 7,0 Z M7,1 C3.6862915,1 1,3.6862915 1,7 C1,10.3137085 3.6862915,13 7,13 C10.3137085,13 13,10.3137085 13,7 C13,3.6862915 10.3137085,1 7,1 Z M8.58203125,3.49804688 L8.58203125,8.12207031 L9.48046875,8.12207031 L9.48046875,8.85449219 L8.58203125,8.85449219 L8.58203125,10.5 L7.79101562,10.5 L7.79101562,8.85449219 L4.5,8.85449219 L4.5,8.16113281 C4.80598958,7.81608073 5.11523438,7.44742839 5.42773438,7.05517578 C5.74023437,6.66292318 6.03889974,6.26497396 6.32373047,5.86132812 C6.6085612,5.45768229 6.87223307,5.05485026 7.11474609,4.65283203 C7.35725911,4.2508138 7.56152344,3.86588542 7.72753906,3.49804688 L8.58203125,3.49804688 Z M7.79101562,4.69433594 C7.546875,5.12076823 7.31575521,5.5016276 7.09765625,5.83691406 C6.87955729,6.17220052 6.67203776,6.4765625 6.47509766,6.75 C6.27815755,7.0234375 6.09016927,7.27083333 5.91113281,7.4921875 C5.73209635,7.71354167 5.56282552,7.9235026 5.40332031,8.12207031 L7.79101562,8.12207031 L7.79101562,4.69433594 Z" id="4"></path>
                    </g>
                </g>
            </g>
        </g>
    </g>
</svg>
