<svg xmlns="http://www.w3.org/2000/svg" xmlns:xlink="http://www.w3.org/1999/xlink"  version="1.1" width="14" height="14" viewBox="0 0 14 14"><g><g><path d="M4.93167,2.42504C5.35223,1.19424,7.05276,1.15696,7.55139,2.31322L7.59359,2.42575L8.16113,4.08558C8.42429,4.85575,9.00809,5.47421,9.7618,5.78128L9.91441,5.83825L11.5742,6.40512C12.8049,6.82571,12.8422,8.52633,11.6867,9.02499L11.5742,9.06718L9.91441,9.63476C9.14401,9.89776,8.52531,10.4816,8.2181,11.2355L8.16113,11.3874L7.59429,13.048C7.17373,14.2788,5.4732,14.3161,4.97527,13.1605L4.93167,13.048L4.36483,11.3881C4.10184,10.6177,3.51802,9.99895,2.76416,9.69173L2.61225,9.63476L0.952508,9.06789C-0.278937,8.6473,-0.316211,6.94668,0.839983,6.44873L0.952508,6.40512L2.61225,5.83825C3.38239,5.57507,4.00081,4.99125,4.30786,4.23749L4.36483,4.08558L4.93167,2.42504ZM11.8892,1.27943e-7C12.1576,1.27943e-7,12.4027,0.152802,12.5208,0.393859L12.5545,0.476147L12.8007,1.19775L13.5229,1.44391C13.7926,1.53553,13.9804,1.78073,13.9986,2.06496C14.0167,2.34918,13.8617,2.61631,13.6059,2.74154L13.5229,2.7753L12.8014,3.02146L12.5552,3.74377C12.4635,4.01335,12.2182,4.20099,11.934,4.21901C11.6498,4.23704,11.3828,4.08189,11.2577,3.82605L11.2239,3.74377L10.9778,3.02216L10.2555,2.776C9.98585,2.68438,9.79807,2.43918,9.77989,2.15495C9.76171,1.87073,9.91673,1.6036,10.1725,1.47838L10.2555,1.44462L10.9771,1.19846L11.2232,0.476147C11.3204,0.191247,11.5882,-0.000180659,11.8892,1.27943e-7Z" fill-opacity="1" style="mix-blend-mode:passthrough"/></g></g></svg>