<?xml version="1.0" encoding="UTF-8"?>
<svg width="24px" height="24px" viewBox="0 0 24 24" version="1.1" xmlns="http://www.w3.org/2000/svg" xmlns:xlink="http://www.w3.org/1999/xlink">
    <title>icon_cz_任务分配@3x</title>
    <defs>
        <path d="M0,0 C0,0 0,0 0,0 L24,0 C24,0 24,0 24,0 L24,24 C24,24 24,24 24,24 L0,24 C0,24 0,24 0,24 L0,0 Z" id="path-1"></path>
    </defs>
    <g id="页面（新）" stroke="none" stroke-width="1" fill="none" fill-rule="evenodd">
        <g id="icon_cz_任务分配">
            <mask id="mask-2" fill="white">
                <use xlink:href="#path-1"></use>
            </mask>
            <g id="路径"></g>
            <path d="M4.35067073,7.46297908 C4.13847215,5.61883184 6.08037062,4.28056437 7.78522322,5.061729 L18.2723845,9.86194427 C20.1292052,10.711373 20.1292052,13.2881047 18.2725544,14.1374557 L7.7851206,18.9386441 C6.07996341,19.7187838 4.1385015,18.3812392 4.35066202,16.5374228 L4.872,11.999 L4.35067073,7.46297908 Z M7.23144375,6.27095529 C6.45199173,5.91380987 5.58031244,6.51453131 5.67195962,7.31100649 L6.134,11.334 L11.6879157,11.3347389 C12.0217969,11.3347389 12.2982081,11.5807972 12.3457054,11.90147 L12.3529157,11.9997389 C12.3529157,12.3670082 12.055185,12.6647389 11.6879157,12.6647389 L6.134,12.664 L5.67195249,16.6893816 C5.5845051,17.4493578 6.37468089,18.0310218 7.12484673,17.772064 L7.23164202,17.72928 L17.7191027,12.9280793 C18.5402991,12.5524115 18.5402991,11.4470662 17.7189732,11.0713391 L7.23144375,6.27095529 Z" id="任务分配" fill="currentColor" fill-rule="nonzero" mask="url(#mask-2)"></path>
        </g>
    </g>
</svg>