<svg xmlns="http://www.w3.org/2000/svg" xmlns:xlink="http://www.w3.org/1999/xlink"  version="1.1" width="24" height="24" viewBox="0 0 24 24"><defs><clipPath id="master_svg0_51_35693"><rect x="0" y="0" width="24" height="24" rx="0"/></clipPath></defs><g clip-path="url(#master_svg0_51_35693)"><g transform="matrix(-1,0,0,1,43.196533203125,0)"><path d="M26.7982666015625,5.000000095367431C26.7982666015625,5.1591300953674315,26.7350566015625,5.311742095367432,26.622526601562498,5.424260095367432L23.6467966015625,8.400000095367432L35.1984666015625,8.400000095367432Q37.517466601562504,8.400800095367432,39.157066601562505,10.04089009536743Q40.7965666015625,11.680970095367432,40.7965666015625,14.000000095367431Q40.7965666015625,16.319000095367432,39.157066601562505,17.959100095367432Q37.517466601562504,19.59920009536743,35.1982666015625,19.60000009536743L26.1993366015625,19.60000009536743L26.1982666015625,19.60000009536743C25.8668966015625,19.60000009536743,25.5982666015625,19.33140009536743,25.5982666015625,19.000000095367433C25.5982666015625,18.66860009536743,25.8668966015625,18.40000009536743,26.1982666015625,18.40000009536743L35.1982666015625,18.40000009536743Q37.0201666015625,18.399400095367433,38.3083666015625,17.11070009536743Q39.5965666015625,15.822100095367432,39.5965666015625,14.000000095367431Q39.5965666015625,12.177910095367432,38.3083666015625,10.889270095367433Q37.0201666015625,9.600630095367432,35.1980666015625,9.600000095367431L23.6467966015625,9.600000095367431L26.622336601562502,12.575540095367431C26.7350566015625,12.688260095367431,26.7982666015625,12.840870095367432,26.7982666015625,13.000000095367431C26.7982666015625,13.331370095367431,26.5296366015625,13.600000095367431,26.1982666015625,13.600000095367431C26.0391366015625,13.600000095367431,25.8865266015625,13.536790095367431,25.7740066015625,13.424260095367432L25.7740066015625,13.424260095367432L21.7741576015625,9.42442009536743C21.6614807015625,9.311740095367432,21.5982666015625,9.15913009536743,21.5982666015625,9.000000095367431C21.5982666015625,8.840870095367432,21.6614807015625,8.688260095367433,21.7740026015625,8.575740095367433L25.7740066015625,4.575736095367431C25.8865266015625,4.463214295367432,26.0391366015625,4.400000095367432,26.1982666015625,4.400000095367432C26.5296366015625,4.400000095367432,26.7982666015625,4.668629095367431,26.7982666015625,5.000000095367431Z" fill-rule="evenodd"  fill-opacity="1" style="mix-blend-mode:passthrough"/></g></g></svg>