<svg xmlns="http://www.w3.org/2000/svg" xmlns:xlink="http://www.w3.org/1999/xlink" version="1.1" width="24" height="24" viewBox="0 0 24 24"><g><g></g><g><path d="M1.199951171875,4.9093311718749995Q1.199951171875,3.607801171875,1.401876171875,3.2115011718749997Q1.675159171875,2.675158171875,2.2115011718749997,2.401876171875Q2.607801171875,2.199951171875,3.909331171875,2.199951171875L20.090551171875,2.199951171875Q21.392051171875,2.199951171875,21.788351171875,2.401875171875Q22.324751171875,2.675160171875,22.598051171875,3.2115011718749997Q22.799951171875,3.607801171875,22.799951171875,4.9093311718749995L22.799951171875,13.986051171875Q22.799951171875,15.287651171875,22.598051171875,15.683951171875Q22.324751171875,16.220251171875,21.788351171875,16.493551171874998Q21.392051171875,16.695451171875,20.090551171875,16.695451171875L15.431551171875,16.695451171875L15.431551171875,19.931351171875L17.263051171875,19.931351171875C17.704951171875,19.931351171875,18.063051171875,20.289551171875,18.063051171875,20.731351171875C18.063051171875,21.173251171875,17.704951171875,21.531351171875,17.263051171875,21.531351171875L6.736771171875,21.531351171875C6.294941171875,21.531351171875,5.936771171875,21.173251171875,5.936771171875,20.731351171875C5.936771171875,20.289551171875,6.294941171875,19.931351171875,6.736771171875,19.931351171875L8.568361171875,19.931351171875L8.568361171875,16.695451171875L3.909331171875,16.695451171875Q2.607801171875,16.695451171875,2.2115011718749997,16.493551171874998Q1.675158171875,16.220251171875,1.401875171875,15.683951171875Q1.199951171875,15.287651171875,1.199951171875,13.986051171875L1.199951171875,4.9093311718749995ZM8.568361171875,15.095451171875L15.431551171875,15.095451171875L20.090551171875,15.095451171875Q21.007951171875,15.095451171875,21.062051171875,15.067951171875Q21.135151171875,15.030651171875,21.172451171875,14.957551171875Q21.199951171875,14.903451171875,21.199951171875,13.986051171875L21.199951171875,4.9093311718749995Q21.199951171875,3.9919311718749997,21.172451171875,3.937891171875Q21.135151171875,3.864751171875,21.062051171875,3.8274911718749998Q21.007951171875,3.799951171875,20.090551171875,3.799951171875L3.909331171875,3.799951171875Q2.9919311718749997,3.799951171875,2.937891171875,3.8274911718749998Q2.864751171875,3.864751171875,2.8274911718749998,3.937891171875Q2.799951171875,3.9919311718749997,2.799951171875,4.9093311718749995L2.799951171875,13.986051171875Q2.799951171875,14.903451171875,2.8274911718749998,14.957551171875Q2.864751171875,15.030651171875,2.937891171875,15.067951171875Q2.9919311718749997,15.095451171875,3.909331171875,15.095451171875L8.568361171875,15.095451171875L8.568361171875,15.095451171875ZM10.168361171875,16.695451171875L10.168361171875,19.931251171875L13.831551171875,19.931251171875L13.831551171875,16.695451171875L10.168361171875,16.695451171875L10.168361171875,16.695451171875ZM13.052751171875,14.008951171875L10.947461171875,14.008951171875C10.505631171875,14.008951171875,10.147461171875,13.650751171875,10.147461171875,13.208951171875C10.147461171875,12.767151171875,10.505631171875,12.408951171875,10.947461171875,12.408951171875L13.052751171875,12.408951171875C13.494551171875,12.408951171875,13.852751171875,12.767151171875,13.852751171875,13.208951171875C13.852751171875,13.650751171875,13.494551171875,14.008951171875,13.052751171875,14.008951171875Z" fill-rule="evenodd" fill-opacity="1"/></g></g></svg>