<svg xmlns="http://www.w3.org/2000/svg" xmlns:xlink="http://www.w3.org/1999/xlink" version="1.1" width="24" height="24" viewBox="0 0 24 24"><g><g><path d="M3.4000244140625,5.534210625L3.4000244140625,18.684940625Q3.4000244140625,19.480540625,3.9692244140625,20.041940625Q4.5349644140625,20.599940625,5.3333544140625,20.599940625L18.6667244140625,20.599940625Q19.4651244140625,20.599940625,20.0308244140625,20.041940625Q20.6000244140625,19.480540625,20.6000244140625,18.684940625L20.6000244140625,7.378150625C20.6000244140625,7.210450625,20.5298244140625,7.050390625,20.4064244140625,6.936790625L16.9760244140625,3.777772625C16.8652244140625,3.675764825,16.7201244140625,3.619140625,16.5695244140625,3.619140625L5.3333544140625,3.619140625Q4.5349644140625,3.619140625,3.9692214140625,4.177135625Q3.4000244140625,4.738540625,3.4000244140625,5.534210625ZM6.955564414062501,4.819140625L5.3333544140625,4.819140625Q5.0271844140625,4.819140625,4.8118744140625,5.031500625Q4.6000244140625,5.240450625,4.6000244140625,5.534210625L4.6000244140625,18.684940625Q4.6000244140625,18.978640625,4.8118744140625,19.187640625Q5.0271744140625,19.399940625,5.3333544140625,19.399940625L18.6667244140625,19.399940625Q19.4000244140625,19.399940625,19.4000244140625,18.684940625L19.4000244140625,7.641280625L16.335324414062498,4.819140625L12.6030144140625,4.819140625L12.6000144140625,7.456910625Q12.6000144140625,7.905670625,12.1811544140625,8.159900624999999Q11.9075044140625,8.325990625,11.5555644140625,8.325990625L8.0000144140625,8.325990625Q7.6480644140625,8.325990625,7.3744244140625,8.159900624999999Q6.955564414062501,7.905670625,6.955564414062501,7.456230625L6.955564414062501,4.819140625ZM11.4030144140625,4.819140625L8.1555644140625,4.819140625L8.1555644140625,7.125990625L11.4003844140625,7.125990625L11.4030144140625,4.819140625ZM16.4444244140625,13.586230625L7.5555644140625,13.586230625C7.2241944140625005,13.586230625,6.955564414062501,13.317600625,6.955564414062501,12.986230625C6.955564414062501,12.654860625,7.2241944140625005,12.386230625,7.5555644140625,12.386230625L16.4444244140625,12.386230625C16.775824414062498,12.386230625,17.044424414062497,12.654860625,17.044424414062497,12.986230625C17.044424414062497,13.317600625,16.775824414062498,13.586230625,16.4444244140625,13.586230625ZM12.0037044140625,17.093040625L7.5555644140625,17.093040625C7.2241944140625005,17.093040625,6.955564414062501,16.824440625,6.955564414062501,16.493040625C6.955564414062501,16.161740625,7.2241944140625005,15.893040625,7.5555644140625,15.893040625L12.0037044140625,15.893040625C12.3350744140625,15.893040625,12.6037044140625,16.161740625,12.6037044140625,16.493040625C12.6037044140625,16.824440625,12.3350744140625,17.093040625,12.0037044140625,17.093040625Z" fill-rule="evenodd" fill-opacity="1"/></g></g></svg>