<svg xmlns="http://www.w3.org/2000/svg" xmlns:xlink="http://www.w3.org/1999/xlink" version="1.1" width="24" height="24" viewBox="0 0 24 24"><defs><clipPath id="master_svg0_51_35688"><rect x="0" y="0" width="24" height="24" rx="0"/></clipPath></defs><g clip-path="url(#master_svg0_51_35688)"><g><path d="M7.600000095367432,5.000000095367431C7.600000095367432,5.1591300953674315,7.536790095367432,5.311742095367432,7.424260095367432,5.424260095367432L4.448530095367431,8.400000095367432L16.000200095367433,8.400000095367432Q18.31920009536743,8.400800095367432,19.958800095367433,10.04089009536743Q21.59830009536743,11.680970095367432,21.59830009536743,14.000000095367431Q21.59830009536743,16.319000095367432,19.958800095367433,17.959100095367432Q18.31920009536743,19.59920009536743,16.000000095367433,19.60000009536743L7.001070095367432,19.60000009536743L7.000000095367431,19.60000009536743C6.668630095367432,19.60000009536743,6.400000095367432,19.33140009536743,6.400000095367432,19.000000095367433C6.400000095367432,18.66860009536743,6.668630095367432,18.40000009536743,7.000000095367431,18.40000009536743L16.000000095367433,18.40000009536743Q17.821900095367432,18.399400095367433,19.110100095367432,17.11070009536743Q20.398300095367432,15.822100095367432,20.398300095367432,14.000000095367431Q20.398300095367432,12.177910095367432,19.110100095367432,10.889270095367433Q17.821900095367432,9.600630095367432,15.999800095367432,9.600000095367431L4.448530095367431,9.600000095367431L7.424070095367432,12.575540095367431C7.536790095367432,12.688260095367431,7.600000095367432,12.840870095367432,7.600000095367432,13.000000095367431C7.600000095367432,13.331370095367431,7.331370095367432,13.600000095367431,7.000000095367431,13.600000095367431C6.840870095367432,13.600000095367431,6.688260095367432,13.536790095367431,6.575740095367432,13.424260095367432L6.575740095367432,13.424260095367432L2.5758910953674317,9.42442009536743C2.463214195367432,9.311740095367432,2.4000000953674316,9.15913009536743,2.4000000953674316,9.000000095367431C2.4000000953674316,8.840870095367432,2.463214195367432,8.688260095367433,2.5757360953674318,8.575740095367433L6.575740095367432,4.575736095367431C6.688260095367432,4.463214295367432,6.840870095367432,4.400000095367432,7.000000095367431,4.400000095367432C7.331370095367432,4.400000095367432,7.600000095367432,4.668629095367431,7.600000095367432,5.000000095367431Z" fill-rule="evenodd" fill-opacity="1" style="mix-blend-mode:passthrough"/></g></g></svg>