<svg xmlns="http://www.w3.org/2000/svg" xmlns:xlink="http://www.w3.org/1999/xlink"  version="1.1" width="20" height="20" viewBox="0 0 20 20"><defs><clipPath id="master_svg0_23_42365"><rect x="0" y="0" width="20" height="20" rx="0"/></clipPath></defs><g clip-path="url(#master_svg0_23_42365)"><g><path d="M10.907883823547364,4.275542046875Q10.549083823547363,3.916748046875,10.041673823547363,3.916748046875Q9.534263823547363,3.916748046875,9.175469823547363,4.275542046875Q8.816675186147362,4.634336046875,8.816675186147362,5.141748046875Q8.816675186147362,5.649158046875,9.175469823547363,6.007958046875Q9.534263823547363,6.366748046875,10.041673823547363,6.366748046875Q10.549083823547363,6.366748046875,10.907883823547364,6.007958046875Q11.266673823547363,5.649158046875,11.266673823547363,5.141748046875Q11.266673823547363,4.634336046875,10.907883823547364,4.275542046875ZM10.907883823547364,9.175538046875001Q10.549083823547363,8.816748046875,10.041673823547363,8.816748046875Q9.534264823547364,8.816748046875,9.175469823547363,9.175538046875001Q8.816675186147362,9.534338046875,8.816675186147362,10.041748046875Q8.816675186147362,10.549158046875,9.175469823547363,10.907958046874999Q9.534263823547363,11.266748046875,10.041673823547363,11.266748046875Q10.549083823547363,11.266748046875,10.907883823547364,10.907948046875Q11.266673823547363,10.549158046875,11.266673823547363,10.041748046875Q11.266673823547363,9.534338046875,10.907883823547364,9.175538046875001ZM10.907883823547364,14.075548046875Q10.549083823547363,13.716748046875,10.041673823547363,13.716748046875Q9.534263823547363,13.716748046875,9.175469823547363,14.075548046875Q8.816675186147362,14.434348046875,8.816675186147362,14.941748046875Q8.816675186147362,15.449148046875,9.175468823547364,15.807948046875Q9.534262823547364,16.166748046875,10.041673823547363,16.166748046875Q10.549083823547363,16.166748046875,10.907883823547364,15.807948046875Q11.266673823547363,15.449148046875,11.266673823547363,14.941748046875Q11.266673823547363,14.434348046875,10.907883823547364,14.075548046875Z" fill-rule="evenodd"  fill-opacity="1" style="mix-blend-mode:passthrough"/></g></g></svg>