<svg xmlns="http://www.w3.org/2000/svg" xmlns:xlink="http://www.w3.org/1999/xlink" version="1.1" width="24" height="24" viewBox="0 0 24 24"><g style="opacity:0.6000000238418579;"><g><path d="M4.699951171875,4.720821171875Q4.699951171875,2.947771171875,4.950636171875,2.455771171875Q5.289911171875,1.789910171875,5.955771171875,1.450636171875Q6.447771171875,1.199951171875,8.220821171875,1.199951171875L15.779051171875,1.199951171875Q17.552151171875,1.199951171875,18.044151171875,1.450636171875Q18.709951171874998,1.789911171875,19.049251171875,2.455771171875Q19.299951171875,2.947771171875,19.299951171875,4.720821171875L19.299951171875,19.279051171875Q19.299951171875,21.052151171875,19.049251171875,21.544151171875Q18.709951171874998,22.209951171875,18.044151171875,22.549251171875Q17.552151171875,22.799951171875,15.779051171875,22.799951171875L8.220821171875,22.799951171875Q6.447771171875,22.799951171875,5.955771171875,22.549251171875Q5.289912171875,22.209951171875,4.950637171875,21.544151171875Q4.699951171875,21.052151171875,4.699951171875,19.279051171875L4.699951171875,4.720821171875ZM6.299951171875,4.720821171875L6.299951171875,19.279051171875Q6.299951171875,20.668051171875,6.376241171875,20.817751171875Q6.479501171875,21.020351171875,6.682151171875,21.123651171875Q6.831891171875,21.199951171875,8.220821171875,21.199951171875L15.779051171875,21.199951171875Q17.168051171875,21.199951171875,17.317751171875003,21.123651171875Q17.520351171875,21.020351171875,17.623651171875,20.817751171875Q17.699951171875,20.668051171875,17.699951171875,19.279051171875L17.699951171875,4.720821171875Q17.699951171875,3.331901171875,17.623651171875,3.1821611718750002Q17.520351171875,2.979501171875,17.317751171875003,2.876251171875Q17.168051171875,2.799951171875,15.779051171875,2.799951171875L8.220821171875,2.799951171875Q6.831901171875,2.799951171875,6.682161171875,2.876251171875Q6.479501171875,2.979501171875,6.3762511718749995,3.1821611718750002Q6.299951171875,3.331891171875,6.299951171875,4.720821171875ZM12.999951171875,5.799951171875L10.999951171875,5.799951171875C10.558121171875001,5.799951171875,10.199951171875,5.441781171875,10.199951171875,4.999951171875C10.199951171875,4.558121171874999,10.558121171875001,4.199951171875,10.999951171875,4.199951171875L12.999951171875,4.199951171875C13.441781171875,4.199951171875,13.799951171875,4.558121171874999,13.799951171875,4.999951171875C13.799951171875,5.441781171875,13.441781171875,5.799951171875,12.999951171875,5.799951171875ZM13.999951171875,19.799951171875L9.999951171875,19.799951171875C9.558121171875001,19.799951171875,9.199951171875,19.441751171875,9.199951171875,18.999951171875C9.199951171875,18.558151171875,9.558121171875001,18.199951171875,9.999951171875,18.199951171875L13.999951171875,18.199951171875C14.441781171875,18.199951171875,14.799951171875,18.558151171875,14.799951171875,18.999951171875C14.799951171875,19.441751171875,14.441781171875,19.799951171875,13.999951171875,19.799951171875Z" fill-rule="evenodd" fill-opacity="1"/></g></g></svg>