<svg xmlns="http://www.w3.org/2000/svg" xmlns:xlink="http://www.w3.org/1999/xlink" version="1.1" width="24" height="24" viewBox="0 0 24 24"><defs><clipPath id="master_svg0_51_35606"><rect x="0" y="0" width="24" height="24" rx="0"/></clipPath></defs><g clip-path="url(#master_svg0_51_35606)"><g><path d="M15.9463654296875,6.969519375Q16.1380654296875,7.167989374999999,16.1356654296875,7.443929375Q16.133265429687498,7.719859375,15.9381654296875,7.914979375Q15.7429654296875,8.110099375,15.4670654296875,8.112489375Q15.1911654296875,8.114879375000001,14.9902654296875,7.920769375L12.6596154296875,5.5909893749999995L12.6596154296875,15.301009375Q12.6596154296875,15.580309375,12.4620754296875,15.777909375Q12.2645454296875,15.975409375,11.9851854296875,15.975409375Q11.7058254296875,15.975409375,11.5082854296875,15.777909375Q11.3107554296875,15.580309375,11.3107554296875,15.301009375L11.3107554296875,5.590979375L8.9776854296875,7.923179375Q8.7792154296875,8.114869375,8.503295429687501,8.112469375Q8.2273754296875,8.110079375,8.032255429687499,7.914959375Q7.8371454296875,7.719849375,7.8347454296875,7.443929375Q7.8323454296875,7.1680093750000005,8.026475429687501,6.967049375L11.5063254296875,3.487218375Q11.6699854296875,3.319942375,11.8982854296875,3.298826075Q11.9643054296875,3.276720575,12.0335154296875,3.296320795Q12.2862054296875,3.306376675,12.4615354296875,3.485644375L15.9438654296875,6.967029375L15.9463654296875,6.969519375ZM5.8790254296875,20.709509375L17.9312654296875,20.707609375Q19.0312654296875,20.750709375,19.8352654296875,19.997909375Q20.6407654296875,19.243709375,20.6685654296875,18.143109375Q20.7225654296875,16.732109375,20.6865654296875,13.900709375Q20.6687654296875,12.491959375,20.6687654296875,11.790399375Q20.6687654296875,11.511039375,20.4711654296875,11.313499375Q20.2736654296875,11.115969374999999,19.9942654296875,11.115969374999999Q19.7149654296875,11.115969374999999,19.5173654296875,11.313509375Q19.3198654296875,11.511039375,19.3198654296875,11.790399375L19.3198654296875,17.643909375L19.3205654296875,17.652309375Q19.3604654296875,18.122609375,19.235365429687498,18.577409375000002Q18.904665429687498,19.380509375,18.0327654296875,19.360709375L18.0304654296875,19.360609375L6.2025354296875,19.360609375Q4.6774354296875,19.360609375,4.6584954296875,18.050009375000002Q4.6382854296875,16.660209375,4.6517654296875,13.878909375Q4.6585154296875,12.486759375,4.6585154296875,11.790399375Q4.6585154296875,11.511039375,4.4609854296875,11.313499375Q4.2634444296875,11.115969374999999,3.9840844296875,11.115969374999999Q3.7047254296875,11.115969374999999,3.5071884296875,11.313499375Q3.3096520296875,11.511039375,3.3096516596875,11.790399375L3.3096512396875,11.815069375L3.3071828796875,13.800009375L3.3045917898875,15.884809375L3.3096370596875,17.913509375Q3.2451907296874998,19.027809375,3.9996774296875,19.851709375Q4.7563054296875,20.678009375,5.8761954296875,20.709409375L5.8790254296875,20.709509375Z" fill-rule="evenodd" fill-opacity="1"/></g></g></svg>