<svg xmlns="http://www.w3.org/2000/svg" xmlns:xlink="http://www.w3.org/1999/xlink" version="1.1" width="24" height="24" viewBox="0 0 24 24"><defs><clipPath id="master_svg0_23_35183"><rect x="0" y="0" width="24" height="24" rx="0"/></clipPath></defs><g clip-path="url(#master_svg0_23_35183)"><g><path d="M1.949951171875,18.937451171875L1.949951171875,5.062451171875Q1.949951171875,4.498085171875,2.349018171875,4.099018171875Q2.748085171875,3.699951171875,3.312451171875,3.699951171875L20.687451171875,3.699951171875Q21.251851171875,3.699951171875,21.650851171875,4.099019171875Q22.049951171875,4.498084171875,22.049951171875,5.062451171875L22.049951171875,18.937451171875Q22.049951171875,19.501851171875,21.650851171875,19.900851171875Q21.251851171875,20.299951171875,20.687451171875,20.299951171875L3.312451171875,20.299951171875Q2.748085171875,20.299951171875,2.349018171875,19.900851171875Q1.949951171875,19.501851171875,1.949951171875,18.937451171875ZM20.449951171875,18.699951171875L3.549951171875,18.699951171875L3.549951171875,5.299951171875L20.449951171875,5.299951171875L20.449951171875,18.699951171875ZM13.999951171875,15.199951171875L9.999951171875,15.199951171875C9.558121171875001,15.199951171875,9.199951171875,15.558151171875,9.199951171875,15.999951171875C9.199951171875,16.441751171874998,9.558121171875001,16.799951171875,9.999951171875,16.799951171875L13.999951171875,16.799951171875C14.441751171875,16.799951171875,14.799951171875,16.441751171874998,14.799951171875,15.999951171875C14.799951171875,15.558151171875,14.441751171875,15.199951171875,13.999951171875,15.199951171875Z" fill-rule="evenodd" fill-opacity="1" style="mix-blend-mode:passthrough"/></g></g></svg>