<svg xmlns="http://www.w3.org/2000/svg" xmlns:xlink="http://www.w3.org/1999/xlink"  version="1.1" width="24" height="24" viewBox="0 0 24 24"><g><g><path d="M17.2316244140625,17.23150234375L18.8158244140625,17.23150234375Q19.5548244140625,17.23150234375,20.0774244140625,16.708902343749997Q20.6000244140625,16.18630234375,20.6000244140625,15.44730234375L20.6000244140625,5.18411234375Q20.6000244140625,4.44507234375,20.0774244140625,3.92248534375Q19.5548244140625,3.39990234375,18.8158244140625,3.39990234375L8.552644414062499,3.39990234375Q7.8136044140625,3.39990234375,7.2910144140625,3.92248534375Q6.7684344140625,4.44507234375,6.7684344140625,5.18411234375L6.7684344140625,6.76831234375L5.1842344140625,6.76831234375Q4.4451944140625,6.76831234375,3.9226074140625,7.29089234375Q3.4000244140625,7.81348234375,3.4000244140625,8.552522343749999L3.4000244140625,18.81570234375Q3.4000244140625,19.55470234375,3.9226074140625,20.07730234375Q4.4451944140625,20.59990234375,5.1842344140625,20.59990234375L15.4474244140625,20.59990234375Q16.1864244140625,20.59990234375,16.709024414062497,20.07730234375Q17.2316244140625,19.55470234375,17.2316244140625,18.81570234375L17.2316244140625,17.23150234375ZM17.2316244140625,16.03150234375L18.8158244140625,16.03150234375Q19.4000244140625,16.03150234375,19.4000244140625,15.44730234375L19.4000244140625,5.18411234375Q19.4000244140625,4.94212234375,19.2289244140625,4.77101234375Q19.0578244140625,4.59990234375,18.8158244140625,4.59990234375L8.552644414062499,4.59990234375Q8.310654414062501,4.59990234375,8.139544414062499,4.77101234375Q7.9684344140625,4.94212234375,7.9684344140625,5.18411234375L7.9684344140625,6.76831234375L15.4474244140625,6.76831234375Q16.1864244140625,6.76831234375,16.709024414062497,7.29089234375Q17.2316244140625,7.81347234375,17.2316244140625,8.552522343749999L17.2316244140625,16.03150234375ZM15.8605244140625,8.139422343749999Q16.0316244140625,8.310532343750001,16.0316244140625,8.552522343749999L16.0316244140625,18.81570234375Q16.0316244140625,19.39990234375,15.4474244140625,19.39990234375L5.1842344140625,19.39990234375Q4.6000244140625,19.39990234375,4.6000244140625,18.81570234375L4.6000244140625,8.552522343749999Q4.6000244140625,8.310532343750001,4.7711344140625,8.139422343749999Q4.9422444140625,7.96831234375,5.1842344140625,7.96831234375L15.4474244140625,7.96831234375Q15.6894244140625,7.96831234375,15.8605244140625,8.139422343749999Z" fill-rule="evenodd"  fill-opacity="1"/></g></g></svg>