<svg xmlns="http://www.w3.org/2000/svg" xmlns:xlink="http://www.w3.org/1999/xlink"  version="1.1" width="24" height="24" viewBox="0 0 24 24"><g><g><path d="M6.574957031249999,6.36034703125C6.58306703125,6.3600270312500005,6.591207031250001,6.359867031249999,6.59938703125,6.359867031249999L8.76410703125,6.359867031249999L9.777437031249999,4.51129703125C9.88275703125,4.31915403125,10.08445703125,4.19970703125,10.303567031250001,4.19970703125L13.71928703125,4.19970703125C13.94023703125,4.19970703125,14.14330703125,4.32113903125,14.24790703125,4.51578503125L15.23840703125,6.359867031249999L17.39940703125,6.359867031249999C17.407607031250002,6.359867031249999,17.41570703125,6.3600270312500005,17.42380703125,6.36034703125L19.19970703125,6.36034703125C19.531107031250002,6.36034703125,19.79970703125,6.62897703125,19.79970703125,6.96034703125C19.79970703125,7.29172703125,19.531107031250002,7.56034703125,19.19970703125,7.56034703125L17.99940703125,7.56034703125L17.99940703125,19.19990703125C17.99940703125,19.53120703125,17.730807031250002,19.79990703125,17.39940703125,19.79990703125L6.59938703125,19.79990703125C6.26801703125,19.79990703125,5.99938703125,19.53120703125,5.99938703125,19.19990703125L5.99938703125,7.56034703125L4.79970703125,7.56034703125C4.46833603125,7.56034703125,4.19970703125,7.29172703125,4.19970703125,6.96034703125C4.19970703125,6.62897703125,4.46833603125,6.36034703125,4.79970703125,6.36034703125L6.574957031249999,6.36034703125ZM7.19938703125,7.56034703125L7.19938703125,18.599907031249998L16.79940703125,18.599907031249998L16.79940703125,7.56034703125L7.19938703125,7.56034703125ZM10.13266703125,6.35970703125L13.87615703125,6.35970703125L13.36049703125,5.39970703125L10.65890703125,5.39970703125L10.13266703125,6.35970703125ZM9.95983703125,15.23950703125L9.95983703125,10.559477031250001C9.95983703125,10.22809703125,10.22846703125,9.95947703125,10.55983703125,9.95947703125C10.89120703125,9.95947703125,11.15983703125,10.22809703125,11.15983703125,10.559477031250001L11.15983703125,15.23950703125C11.15983703125,15.57080703125,10.89120703125,15.83950703125,10.55983703125,15.83950703125C10.22846703125,15.83950703125,9.95983703125,15.57080703125,9.95983703125,15.23950703125ZM12.83971703125,15.23950703125L12.83971703125,10.559477031250001C12.83971703125,10.22809703125,13.10834703125,9.95947703125,13.43972703125,9.95947703125C13.77109703125,9.95947703125,14.03971703125,10.22809703125,14.03971703125,10.559477031250001L14.03971703125,15.23950703125C14.03971703125,15.57080703125,13.77109703125,15.83950703125,13.43972703125,15.83950703125C13.10834703125,15.83950703125,12.83971703125,15.57080703125,12.83971703125,15.23950703125Z" fill-rule="evenodd" fill-opacity="1"/></g></g></svg>