<svg xmlns="http://www.w3.org/2000/svg" xmlns:xlink="http://www.w3.org/1999/xlink" version="1.1" width="24" height="24" viewBox="0 0 24 24"><g><g><path d="M1.5191464140625,11.64107234375C1.3603169140625,11.85393234375,1.3603171140625,12.14587234375,1.5191474140625,12.358732343749999Q2.6812644140625,13.91613234375,4.5460544140625,15.46180234375Q8.3319044140625,18.59990234375,12.0000244140625,18.59990234375Q15.6681244140625,18.59990234375,19.4540244140625,15.46180234375Q21.3188244140625,13.91614234375,22.4809244140625,12.358732343749999C22.6397244140625,12.14587234375,22.6397244140625,11.85393234375,22.4809244140625,11.64107234375Q21.3188244140625,10.083682343749999,19.4540244140625,8.53796234375Q15.6681244140625,5.39990234375,12.0000244140625,5.39990234375Q8.3326444140625,5.39990234375,4.547484414062501,8.53678234375Q2.6828744140625,10.08204234375,1.5191464140625,11.64107234375ZM2.7590344140625,11.99994234375Q3.7754744140625,13.26447234375,5.3118544140625,14.53796234375Q8.7645844140625,17.39990234375,12.0000244140625,17.39990234375Q15.2354244140625,17.39990234375,18.6882244140625,14.53796234375Q20.2246244140625,13.264452343750001,21.2410244140625,11.99990234375Q20.2246244140625,10.735362343750001,18.6882244140625,9.46184234375Q15.2354244140625,6.59990234375,12.0000244140625,6.59990234375Q8.7652544140625,6.59990234375,5.3131944140625,9.46073234375Q3.7767244140625,10.734052343750001,2.7590344140625,11.99994234375ZM9.8079944140625,9.807872343749999Q8.9000244140625,10.71585234375,8.9000244140625,11.99990234375Q8.9000244140625,13.28395234375,9.8079944140625,14.19193234375Q10.7159744140625,15.09990234375,12.0000244140625,15.09990234375Q13.2841244140625,15.09990234375,14.1920244140625,14.19193234375Q15.1000244140625,13.28395234375,15.1000244140625,11.99990234375Q15.1000244140625,10.71585234375,14.1920244140625,9.807872343749999Q13.2841244140625,8.89990234375,12.0000244140625,8.89990234375Q10.7159744140625,8.89990234375,9.8079944140625,9.807872343749999ZM10.6565244140625,13.34340234375Q10.1000244140625,12.78690234375,10.1000244140625,11.99990234375Q10.1000244140625,11.212902343749999,10.6565244140625,10.656402343749999Q11.2130244140625,10.09990234375,12.0000244140625,10.09990234375Q12.7870244140625,10.09990234375,13.3435244140625,10.656402343749999Q13.9000244140625,11.212902343749999,13.9000244140625,11.99990234375Q13.9000244140625,12.78690234375,13.3435244140625,13.34340234375Q12.7870244140625,13.89990234375,12.0000244140625,13.89990234375Q11.2130244140625,13.89990234375,10.6565244140625,13.34340234375Z" fill-rule="evenodd" fill-opacity="1"/></g></g></svg>