<svg xmlns="http://www.w3.org/2000/svg" xmlns:xlink="http://www.w3.org/1999/xlink" version="1.1" width="20" height="20" viewBox="0 0 20 20"><g><g><path d="M4.41759234375,9.9329144140625L7.74990234375,13.164254414062501L15.58180234375,5.5696524140625L15.58180234375,5.5696524140625C15.68870234375,5.4659800140625,15.82980234375,5.4058190540625,15.97810234375,5.4004214410625C15.97810234375,5.4004214410625,15.99990234375,5.4000244140625,15.99990234375,5.4000244140625C16.16220234375,5.4000244140625,16.31760234375,5.4657996140625,16.43060234375,5.5823364140625C16.53390234375,5.6888694140625,16.594102343750002,5.8299044140625,16.59950234375,5.9782004140625C16.59950234375,5.9782004140625,16.59990234375,6.0000244140625,16.59990234375,6.0000244140625C16.59990234375,6.1623554140625,16.53410234375,6.3177584140625,16.417602343749998,6.4307644140625L16.417602343749998,6.4307644140625L8.16759234375,14.4307644140625C7.93486234375,14.6564444140625,7.56494234375,14.6564444140625,7.33221234375,14.4307644140625L3.58221434375,10.7943944140625C3.46797524375,10.6836144140625,3.40242105375,10.531994414062499,3.39997333285,10.3728844140625L3.39990234375,10.3636544140625C3.39990234375,10.2077244140625,3.46060954375,10.0579144140625,3.56916234375,9.9459644140625C3.6799403437500002,9.8317244140625,3.83156234375,9.766174414062501,3.99067334375,9.7637244140625L3.99990234375,9.7636544140625C4.15583634375,9.7636544140625,4.30564534375,9.8243644140625,4.41759234375,9.9329144140625Z" fill-rule="evenodd" fill-opacity="1"/></g></g></svg>
