<?xml version="1.0" encoding="UTF-8"?>
<svg width="18px" height="18px" viewBox="0 0 18 18" version="1.1" xmlns="http://www.w3.org/2000/svg" xmlns:xlink="http://www.w3.org/1999/xlink">
    <title>部门</title>
    <g id="统一门户" stroke="none" stroke-width="1" fill="none" fill-rule="evenodd">
        <g id="通讯录" transform="translate(-400.000000, -205.000000)">
            <g id="编组-8" transform="translate(380.000000, 204.000000)">
                <g id="树状控件" transform="translate(20.000000, 0.000000)">
                    <g id="zuz" transform="translate(0.000000, 1.000000)">
                        <rect id="矩形" fill="none" x="0" y="0" width="18" height="18" rx="9"></rect>
                        <path d="M5.10160428,5.29411765 L6.87751095,5.29411765 C7.09677712,5.29411765 7.30788645,5.37726251 7.4682639,5.52678418 L8.21244049,6.22058824 L8.21244049,6.22058824 L12.8983957,6.22058824 C13.3768456,6.22058824 13.7647059,6.60844851 13.7647059,7.0868984 L13.7647059,11.8395722 C13.7647059,12.3180221 13.3768456,12.7058824 12.8983957,12.7058824 L5.10160428,12.7058824 C4.62315439,12.7058824 4.23529412,12.3180221 4.23529412,11.8395722 L4.23529412,6.16042781 C4.23529412,5.68197792 4.62315439,5.29411765 5.10160428,5.29411765 Z" id="矩形备份-4" fill="var(--el-color-primary)"></path>
                    </g>
                </g>
            </g>
        </g>
    </g>
</svg>