<svg xmlns="http://www.w3.org/2000/svg" xmlns:xlink="http://www.w3.org/1999/xlink" version="1.1" width="16" height="15.999996185302734" viewBox="0 0 16 15.999996185302734"><g><path d="M2.3431,13.6569Q4.68621,16,8,16Q11.3138,16,13.6569,13.6569Q16,11.3138,16,8Q16,4.68621,13.6569,2.3431Q11.3138,0,8,0Q4.68621,0,2.3431,2.3431Q0,4.68621,0,8Q0,11.3138,2.3431,13.6569ZM12.6753,12.6753Q10.7388,14.6119,8,14.6119Q5.26119,14.6119,3.32466,12.6753Q1.38813,10.7388,1.38813,8Q1.38813,5.26119,3.32466,3.32466Q5.26119,1.38813,8,1.38813Q10.7388,1.38813,12.6753,3.32466Q14.6119,5.26119,14.6119,8Q14.6119,10.7388,12.6753,12.6753ZM11.2556,5.68659C11.4782,5.56485,11.6167,5.33135,11.6167,5.07764C11.6167,4.69432,11.3059,4.38357,10.9226,4.38357C10.8062,4.38357,10.6917,4.41284,10.5889,4.46905Q8.3788,5.67806,6.69173,8.89787Q6.15605,8.36363,5.42156,7.94497C5.31684,7.88528,5.19839,7.85389,5.07785,7.85389C4.69453,7.85389,4.38379,8.16464,4.38379,8.54796C4.38379,8.79729,4.51753,9.02747,4.73415,9.15094Q5.74468,9.72694,6.23557,10.548C6.30773,10.6686,6.41484,10.7646,6.54271,10.823C6.89133,10.9824,7.30314,10.829,7.46251,10.4804Q9.12006,6.85448,11.2556,5.68659Z" fill-rule="evenodd"  fill-opacity="1" style="mix-blend-mode:passthrough"/></g></svg>
