<svg xmlns="http://www.w3.org/2000/svg" xmlns:xlink="http://www.w3.org/1999/xlink" version="1.1" width="16" height="16" viewBox="0 0 16 16"><defs><clipPath id="master_svg0_sa38_81888"><rect x="16" y="0" width="16" height="16" rx="0"/></clipPath></defs><g transform="matrix(0,1,-1,0,16,-16)" clip-path="url(#master_svg0_sa38_81888)"><g><g><path d="M28.409890794372558,14.625277785682679L27.822890794372558,14.625277785682679C27.69659079437256,14.625277785682679,27.594290794372558,14.522977785682679,27.594290794372558,14.396777785682678L27.594290794372558,13.222677785682679C27.594290794372558,13.096477785682678,27.69659079437256,12.994077785682679,27.822890794372558,12.994077785682679L28.409890794372558,12.994077785682679Q28.74769079437256,12.994077785682679,28.98659079437256,12.755277785682678Q29.22549079437256,12.516377785682678,29.22549079437256,12.178577785682679L29.22549079437256,4.022647785682678Q29.22549079437256,3.6848177856826783,28.98659079437256,3.4459377856826783Q28.74769079437256,3.2070577856826783,28.409890794372558,3.2070577856826783L27.822890794372558,3.2070577856826783C27.69659079437256,3.2070577856826783,27.594290794372558,3.104717785682678,27.594290794372558,2.9784877856826784L27.594290794372558,1.8044487856826783C27.594290794372558,1.6782127856826783,27.69659079437256,1.5758777856826782,27.822890794372558,1.5758777856826782L28.409890794372558,1.5758777856826782Q29.42339079437256,1.5758777856826782,30.139990794372558,2.2925197856826784Q30.85669079437256,3.009157785682678,30.85669079437256,4.022647785682678L30.85669079437256,12.178577785682679Q30.85669079437256,13.191977785682678,30.139990794372558,13.908677785682679Q29.42339079437256,14.625277785682679,28.409890794372558,14.625277785682679ZM25.63628079437256,8.732557785682678C26.08672079437256,8.732557785682678,26.45187079437256,8.367407785682678,26.45187079437256,7.916967785682679C26.45187079437256,7.466527785682678,26.08672079437256,7.101377785682678,25.63628079437256,7.101377785682678L20.264810794372558,7.101377785682678L22.788920794372558,4.577267785682678C22.878190794372557,4.488007785682678,22.878190794372557,4.343287785682678,22.788920794372558,4.254017785682678L21.95893079437256,3.424027785682678C21.86967079437256,3.3347677856826783,21.724940794372557,3.3347677856826783,21.635680794372558,3.424027785682678L17.719359794372558,7.340347785682678L17.14273834227256,7.916967785682679L21.635680794372558,12.409877785682678C21.724940794372557,12.499177785682678,21.86967079437256,12.499177785682678,21.95893079437256,12.409877785682678L22.788920794372558,11.579877785682678C22.878190794372557,11.490657785682679,22.878190794372557,11.345927785682678,22.788920794372558,11.256667785682678L20.264810794372558,8.732557785682678L25.63628079437256,8.732557785682678Z" fill-rule="evenodd" fill-opacity="1" style="mix-blend-mode:passthrough"/></g></g></g></svg>