<svg xmlns="http://www.w3.org/2000/svg" xmlns:xlink="http://www.w3.org/1999/xlink"  version="1.1" width="20" height="20" viewBox="0 0 20 20"><defs><clipPath id="master_svg0_49_9041"><rect x="0" y="0" width="20" height="20" rx="0"/></clipPath></defs><g clip-path="url(#master_svg0_49_9041)"><g><path d="M12.44998,2.500244140625Q13.382,2.500244140625,14.041,3.159253140625Q14.5156,3.633934140625,14.6484,4.250244140625L17,4.250244140625C17.2762,4.250244140625,17.5,4.474104140625,17.5,4.750244140625C17.5,5.026384140625,17.2762,5.250244140625,17,5.250244140625L14.6484,5.250244140625Q14.5156,5.866544140625,14.041,6.341224140625Q13.382,7.000234140625,12.44998,7.000234140625Q11.518,7.000234140625,10.85899,6.341224140625Q10.38431,5.866544140625,10.25154,5.250244140625L8.25004,5.250244140625Q6.92691,5.250244140625,6.70027,5.401784140625Q6.55119,5.5013841406249995,6.451700000000001,5.650294140625Q6.32899,5.8338241406249995,6.3055699999999995,6.735214140625Q7.35077,6.884104140625,8.13344,7.666774140625Q9.09999,8.633324140625,9.09999,10.000224140625Q9.09999,11.367134140625,8.13344,12.333674140625Q7.35077,13.116344140625,6.3055699999999995,13.265244140625Q6.32899,14.166644140625,6.451700000000001,14.350144140625Q6.55119,14.499044140625,6.70027,14.598644140625Q6.92691,14.750244140625,8.25004,14.750244140625L10.25154,14.750244140625Q10.38431,14.133944140625,10.85899,13.659244140625Q11.518,13.000244140625,12.44998,13.000244140625Q13.382,13.000244140625,14.041,13.659244140625Q14.5156,14.133944140625,14.6484,14.750244140625L17,14.750244140625C17.2762,14.750244140625,17.5,14.974044140625,17.5,15.250244140625C17.5,15.526344140625,17.2762,15.750244140625,17,15.750244140625L14.6484,15.750244140625Q14.5156,16.366544140625003,14.041,16.841244140625Q13.382,17.500244140625,12.44998,17.500244140625Q11.518,17.500244140625,10.85899,16.841244140625Q10.38431,16.366544140625003,10.25154,15.750244140625L8.25004,15.750244140625Q6.62339,15.750244140625,6.14443,15.429944140625Q5.830220000000001,15.220044140625,5.62019,14.905644140625Q5.34858,14.499444140625,5.30741,13.267044140625Q4.25408,13.121244140625,3.466546,12.333674140625Q2.5,11.367134140625,2.5,10.000224140625Q2.5,8.633324140625,3.466546,7.666774140625Q4.25408,6.879244140625,5.30741,6.733384140625Q5.34859,5.500994140625,5.62019,5.094784140625Q5.830220000000001,4.780414140625,6.14443,4.570504140625Q6.62338,4.250244140625,8.25004,4.250244140625L10.25154,4.250244140625Q10.38431,3.633934140625,10.85899,3.159253140625Q11.518,2.500244140625,12.44998,2.500244140625ZM11.5661,5.6341241406249996Q11.20225,5.270274140625,11.2,4.756664140625L11.20004,4.750244140625L11.2,4.743824140625Q11.20225,4.230204140625,11.5661,3.866364140625Q11.93221,3.500244140625,12.44998,3.500244140625Q12.9677,3.500244140625,13.3339,3.866364140625Q13.7,4.2324741406249995,13.7,4.750244140625Q13.7,5.268004140625,13.3339,5.6341241406249996Q12.9677,6.000234140625,12.44998,6.000234140625Q11.93221,6.000234140625,11.5661,5.6341241406249996ZM4.17365,11.626534140625Q3.5,10.952874140625,3.5,10.000184140624999Q3.5,9.047504140625,4.17365,8.373844140625Q4.84731,7.700194140625,5.79999,7.700194140625Q6.75268,7.700194140625,7.42633,8.373844140625Q8.09999,9.047504140625,8.09999,10.000184140624999Q8.09999,10.952874140625,7.42633,11.626534140625Q6.75268,12.300184140625,5.79999,12.300184140625Q4.84731,12.300184140625,4.17365,11.626534140625ZM11.20004,15.250244140625L11.2,15.256644140625Q11.20225,15.770244140625,11.5661,16.134144140625Q11.93221,16.500244140625,12.44998,16.500244140625Q12.9677,16.500244140625,13.3339,16.134144140625Q13.7,15.767944140625,13.7,15.250244140625Q13.7,14.732444140625,13.3339,14.366344140625Q12.9677,14.000244140625,12.44998,14.000244140625Q11.93221,14.000244140625,11.5661,14.366344140625Q11.20225,14.730144140625,11.2,15.243844140625L11.20004,15.250244140625Z" fill-rule="evenodd" fill-opacity="1" style="mix-blend-mode:passthrough"/></g></g></svg>
