<svg xmlns="http://www.w3.org/2000/svg" xmlns:xlink="http://www.w3.org/1999/xlink" version="1.1" width="20" height="20" viewBox="0 0 20 20"><defs><clipPath id="master_svg0_49_9036"><rect x="0" y="0" width="20" height="20" rx="0"/></clipPath></defs><g clip-path="url(#master_svg0_49_9036)"><g><path d="M2.5,6.783451796875L2.5,4.182267796875Q2.5,3.798839796875,2.771124,3.527715796875Q3.042248,3.256591796875,3.425676,3.256591796875L16.5743,3.256591796875Q16.9578,3.256591796875,17.2289,3.527715796875Q17.5,3.798840796875,17.5,4.182267796875L17.5,15.817391796875Q17.5,16.200791796875002,17.2289,16.471991796875002Q16.957700000000003,16.743091796875,16.5743,16.743091796875L3.425676,16.743091796875Q3.042248,16.743091796875,2.771124,16.471991796875002Q2.5,16.200791796875002,2.5,15.817391796875L2.5,6.783451796875ZM3.5,7.283451796875L3.5,11.013181796875L7.16919,11.013181796875L7.16919,7.283451796875L3.5,7.283451796875ZM3.5,12.013181796875L3.5,15.743091796875L7.16919,15.743091796875L7.16919,12.013181796875L3.5,12.013181796875ZM8.16919,15.743091796875L11.83838,15.743091796875L11.83838,12.013181796875L8.16919,12.013181796875L8.16919,15.743091796875ZM12.8384,15.743091796875L16.5,15.743091796875L16.5,12.013181796875L12.8384,12.013181796875L12.8384,15.743091796875ZM16.5,11.013181796875L16.5,7.283451796875L12.8384,7.283451796875L12.8384,11.013181796875L16.5,11.013181796875ZM16.5,6.283451796875L3.5,6.283451796875L3.5,4.256591796875L16.5,4.256591796875L16.5,6.283451796875ZM8.16919,7.283451796875L8.16919,11.013181796875L11.83838,11.013181796875L11.83838,7.283451796875L8.16919,7.283451796875Z" fill-rule="evenodd"  fill-opacity="1" style="mix-blend-mode:passthrough"/></g></g></svg>
