<svg xmlns="http://www.w3.org/2000/svg" xmlns:xlink="http://www.w3.org/1999/xlink"  version="1.1" width="10" height="6" viewBox="0 0 10 6"><g transform="matrix(1,0,0,-1,0,12)"><path d="M6.2291536,7.4749846L7.813087,9.3757045C8.5107059,10.212846800000001,8.869194,10.6477914,8.866848,11.0013309C8.8648987,11.295118800000001,8.7318211,11.5792451,8.5073748,11.7688208C8.2372799,11.996953000000001,7.6736479,12,6.5839334,12L3.4160666,12C2.3263521,12,1.7627203,11.996952499999999,1.4926254,11.7688208C1.2681787,11.5792451,1.1351011,11.295118800000001,1.1331521,11.0013309C1.1308068,10.6477914,1.4892943,10.212846800000001,2.1869128,9.3757048L3.7708461,7.4749846C4.1929588,6.96844935,4.4108176,6.70950997,4.6643987,6.61962026C4.8809423,6.54285961,5.1190577,6.54285961,5.3356013,6.61962026C5.5891824,6.70950997,5.8070412,6.96844941,6.2291536,7.4749846" fill-rule="evenodd" fill-opacity="1"/></g></svg>