<svg xmlns="http://www.w3.org/2000/svg" xmlns:xlink="http://www.w3.org/1999/xlink" version="1.1" width="24" height="24" viewBox="0 0 24 24"><defs><clipPath id="master_svg0_23_41493"><rect x="0" y="0" width="24" height="24" rx="0"/></clipPath></defs><g clip-path="url(#master_svg0_23_41493)"><g><path d="M17.142899999999997,12C17.142899999999997,12.394490000000001,16.887,12.71429,16.5714,12.71429L7.428570000000001,12.71429C7.11298,12.71429,6.857139999999999,12.394490000000001,6.857139999999999,12C6.857139999999999,11.605509999999999,7.11298,11.28571,7.428570000000001,11.28571L16.5714,11.28571C16.887,11.28571,17.142899999999997,11.605509999999999,17.142899999999997,12ZM19.4286,7L4.571429,7C4.255837,7,4,7.319796,4,7.7142859999999995C4,8.10878,4.255837,8.42857,4.571429,8.42857L19.4286,8.42857C19.7442,8.42857,20,8.10878,20,7.7142859999999995C20,7.319796,19.7442,7,19.4286,7ZM13.71429,15.57143L10.28571,15.57143C9.97012,15.57143,9.71429,15.89123,9.71429,16.28571C9.71429,16.6802,9.97012,17,10.28571,17L13.71429,17C14.0299,17,14.2857,16.6802,14.2857,16.28571C14.2857,15.89123,14.0299,15.57143,13.71429,15.57143Z" style="mix-blend-mode:passthrough"/></g></g></svg>