<?xml version="1.0" encoding="UTF-8"?>
<svg width="20px" height="16px" viewBox="0 0 20 16" version="1.1" xmlns="http://www.w3.org/2000/svg" xmlns:xlink="http://www.w3.org/1999/xlink">
    <title>形状结合</title>
    <g id="服务商平台" stroke="none" stroke-width="1" fill-rule="evenodd">
        <g id="服务商管理-服务商管理备份-2" transform="translate(-530.000000, -314.000000)" fill-rule="nonzero">
            <g id="3.DataEntry/form/dynamic/Pop-up-layer备份" transform="translate(490.000000, 215.000000)">
                <g id="编组-13" transform="translate(40.000000, 68.000000)">
                    <g id="编组-10" transform="translate(0.000000, 31.000000)">
                        <path d="M20,0 L20,12 C20,14.209139 18.209139,16 16,16 L0,16 L0,4 C-2.705415e-16,1.790861 1.790861,4.05812251e-16 4,0 L20,0 Z M14.7356006,5.3071036 C14.4217677,5.06308368 13.9679828,5.08526731 13.6795957,5.37365449 L13.6795957,5.37365449 L8.58836538,10.4639791 L6.32568515,8.20208161 L6.25031928,8.13553073 C5.93648631,7.89151081 5.48270145,7.91369444 5.19431428,8.20208161 C4.88189484,8.51450105 4.88189484,9.02103304 5.19431428,9.33345248 L5.19431428,9.33345248 L7.88132005,12.0204582 L7.96854086,12.0981646 C8.36105852,12.4089901 8.93290393,12.3830879 9.29553363,12.0204582 L9.29553363,12.0204582 L14.8109665,6.50502535 L14.8775174,6.42965948 C15.1215373,6.11582651 15.0993537,5.66204166 14.8109665,5.37365449 L14.8109665,5.37365449 Z" id="形状结合"></path>
                    </g>
                </g>
            </g>
        </g>
    </g>
</svg>