<svg xmlns="http://www.w3.org/2000/svg" xmlns:xlink="http://www.w3.org/1999/xlink" version="1.1" width="14" height="14" viewBox="0 0 14 14"><defs><clipPath id="master_svg0_46_81891"><rect x="0" y="0" width="14" height="14" rx="0"/></clipPath></defs><g clip-path="url(#master_svg0_46_81891)"><g><path d="M11.8798140625,4.77938234375L11.6844140625,4.67049234375L11.6337140625,4.64174234375Q11.5335140625,4.5800223437500005,11.4712140625,4.47976234375L11.4607140625,4.46341234375L11.4545140625,4.45172234375Q11.4491140625,4.44227234375,11.4461140625,4.43693234375L11.4344140625,4.417342343750001Q11.3515140625,4.28434234375,11.3593140625,4.12784234375L11.3600140625,4.10647234375L11.3633140625,3.87263234375Q11.3749140625,3.21517234375,11.2929140625,2.95387234375Q11.1837140625,2.60356234375,10.9387140625,2.32903234375Q10.7551940625,2.12322134375,10.1815040625,1.7934683437499999L9.9105240625,1.63713634375Q9.3374740625,1.30705294375,9.0694840625,1.25175384375Q8.7108040625,1.17753354375,8.353084062499999,1.25777244375Q8.088014062500001,1.31705234375,7.5267440625,1.65286134375L7.5210440625,1.65627034375L7.5125440625,1.6614533437499999L7.3254740625,1.77295634375Q7.3033540625,1.78636234375,7.2824440625,1.79823634375Q7.2760940625,1.80184234375,7.2728340625,1.80370734375Q7.1741240625,1.85870334375,7.0526540625,1.86251134375L7.0340340625,1.86338534375L6.9999240625,1.86331734375L6.9416740625,1.86285434375Q6.8234440625,1.8577813437500001,6.7198040625,1.8000183437500001L6.6961540625,1.7859673437499999Q6.6848940625,1.77910834375,6.6780140625,1.77492734375L6.4786840625,1.65543034375Q5.9119440625,1.31480734375,5.6424240625,1.25405784375Q5.2824640625,1.17348514375,4.9222640625,1.24876124375Q4.6575440624999995,1.30405164375,4.0975740625,1.6276603437500001L4.0793540625,1.63781034375L3.8108440625,1.7935213437500002L3.7894840625,1.80651434375Q3.2371540625,2.12756734375,3.0577440625,2.32982234375Q2.8145940625000003,2.60318234375,2.7054540625000003,2.95326234375Q2.6238840625,3.21686234375,2.6354440625,3.87579234375L2.6392840625,4.10846234375Q2.6392040625,4.12595234375,2.6402640625,4.15978234375L2.6406140625,4.14962234375Q2.6383840625,4.29937234375,2.5650540625,4.41740234375L2.5577640625,4.42944234375Q2.5497040625,4.44312234375,2.5384640625,4.4626023437499995L2.5367440625,4.46623234375L2.5288640625000003,4.4786023437499995Q2.4663240625,4.57956234375,2.3653640625000003,4.64148234375L2.3117540625,4.671642343749999L2.1165140625000003,4.77979234375Q1.5347240625,5.10161234375,1.3480410625,5.30542234375Q1.0996870625,5.57428234375,0.9841466625,5.92423234375Q0.8984621765,6.18726234375,0.8994247317,6.84940234375L0.9005283725,7.16043234375Q0.9014874125,7.81640234375,0.9881647625,8.07815234375Q1.1031570625,8.42572234375,1.3511550625,8.69525234375Q1.5373650625000002,8.89684234375,2.1134640625000003,9.21722234375L2.3105440625,9.32677234375Q2.3226540625,9.33352234375,2.3416440625,9.34394234375L2.3522340625,9.34955234375Q2.4800040625,9.42623234375,2.5452940625,9.54979234375L2.5519140625,9.56197234375L2.5849440625,9.62113234375Q2.6468740625000002,9.74097234375,2.6399840625,9.87605234375L2.6392940625000003,9.89631234375L2.6354440625,10.12024234375Q2.6238640625,10.78208234375,2.7061640625,11.04527234375Q2.8158540624999997,11.39630234375,3.0605140625,11.67060234375Q3.2413240625,11.87330234375,3.8078540625,12.20050234375L3.8167640625,12.20560234375L4.088774062500001,12.36250234375L4.0960740625,12.36670234375Q4.6633140625,12.69290234375,4.9298140625,12.74790234375Q5.2884840625,12.82210234375,5.6462140625,12.74190234375Q5.9125340625,12.68250234375,6.4779740625,12.34350234375L6.4804140625,12.34200234375L6.6748940625,12.22550234375L6.7243040625,12.19670234375Q6.8260540625,12.14170234375,6.9409040625,12.13680234375L7.0039840625,12.13630234375L7.0595940625,12.13640234375Q7.1718940625,12.14160234375,7.2738340625,12.19610234375L7.3143440625,12.22030234375L7.5199940625,12.34390234375Q8.089704062500001,12.68570234375,8.358654062500001,12.74550234375Q8.7152740625,12.82620234375,9.0756440625,12.75180234375Q9.3449540625,12.69530234375,9.9178240625,12.36300234375L9.9189140625,12.36240234375L10.1911540625,12.20450234375L10.1966640625,12.20130234375Q10.7615540625,11.87280234375,10.9415140625,11.66990234375Q11.1833140625,11.39880234375,11.2935140625,11.04742234375Q11.3754140625,10.78436234375,11.3638140625,10.13198234375L11.3594140625,9.88966234375L11.3595140625,9.83069234375Q11.3613140625,9.69940234375,11.4345140625,9.58122234375L11.4769140625,9.50978234375Q11.5327140625,9.41990234375,11.6326140625,9.35848234375L11.6774140625,9.33363234375L11.6841140625,9.32993234375L11.8828140625,9.21988234375L11.8915140625,9.21505234375Q12.4657140625,8.89645234375,12.6509140625,8.695262343749999Q12.8996140625,8.426052343750001,13.0152140625,8.075172343750001Q13.1012140625,7.81283234375,13.0993140625,7.15543234375L13.0982140625,6.83929234375Q13.0972140625,6.18105234375,13.0111140625,5.92097234375Q12.8953140625,5.57278234375,12.6470140625,5.30375234375Q12.4622140625,5.10280234375,11.8861140625,4.78284234375L11.8798140625,4.77938234375ZM11.3093140625,5.83514234375L11.3015140625,5.83091234375L11.1002140625,5.71867234375L11.0344140625,5.68145234375L11.0213140625,5.67382234375Q10.6711240625,5.46363234375,10.4547440625,5.11756234375Q10.4368140625,5.08952234375,10.4118240625,5.04563234375L10.4092040625,5.04105234375Q10.1377340625,4.59857234375,10.1602840625,4.0798623437499995L10.1634540625,3.85570234375Q10.1716940625,3.38864234375,10.1479840625,3.31308234375Q10.1154540625,3.20879234375,10.0433640625,3.12800234375Q9.9888040625,3.0668123437499997,9.5834940625,2.8338523437500003L9.3108640625,2.6765623437499997Q8.9058540625,2.44327234375,8.8269840625,2.4269923437500003Q8.7210040625,2.40506234375,8.6157240625,2.4286823437500002Q8.5385740625,2.44593234375,8.144694062500001,2.68152234375L8.1346440625,2.6876423437500003L7.9398640625,2.8037423437499998Q7.9111440625,2.82120234375,7.8749840625,2.84173234375Q7.8701940625,2.84445234375,7.8681640625,2.8456223437499997Q7.5059940625,3.0475823437500003,7.0958640625,3.0617423437499998Q7.0605540625,3.06332234375,6.9999240625,3.06332234375L6.9237840625,3.0627523437499997L6.9092940625,3.06246234375Q6.4964240625,3.04931234375,6.1355940625,2.84821234375Q6.1174140625,2.83856234375,6.0714940625,2.81057234375Q6.0611840625,2.8042823437499997,6.0552340625,2.80067234375L5.8617140625,2.68467234375Q5.4594840625,2.44293234375,5.3785640625,2.4246923437500003Q5.2737540625,2.4012323437500003,5.1677540625,2.42338234375Q5.0889440625,2.43984234375,4.6854840625000005,2.67389234375L4.683074062499999,2.67529234375L4.6650440625,2.68534234375L4.4315040625,2.82077234375L4.4094340625,2.8341723437499997Q4.0090940625,3.0656623437499997,3.9554640625,3.12612234375Q3.8831940625,3.20737234375,3.8510840625,3.31040234375Q3.8270740625,3.38799234375,3.8352640625,3.85474234375L3.8391240625,4.088652343750001Q3.8392040625,4.10720234375,3.8396740625,4.12229234375Q3.8408840625,4.16083234375,3.8399940625,4.18834234375Q3.8335740625,4.64562234375,3.5886640625,5.04369234375Q3.5841040625,5.051492343750001,3.5777640625,5.06248234375Q3.5599440625,5.09334234375,3.5466040625,5.11439234375Q3.3288640625,5.46389234375,2.9750840625,5.67510234375L2.9616840625,5.68286234375L2.9000640625,5.71753234375L2.6980440625,5.82946234375Q2.2871640625,6.05674234375,2.2329340625,6.11595234375Q2.1576440625,6.19746234375,2.1236440625,6.30045234375Q2.0987440625,6.37693234375,2.0994240625,6.84766234375L2.1005240625,7.15617234375Q2.1012040625,7.62203234375,2.1273340625,7.70092234375Q2.1612340625,7.80341234375,2.2342240625,7.88273234375Q2.2884840625000002,7.94147234375,2.6966840625,8.16848234375L2.8935640625000003,8.27792234375Q2.9036340625,8.28353234375,2.9192340625,8.29209234375Q2.9607540625,8.31490234375,2.9850240625,8.329962343750001Q3.3812240625,8.567382343750001,3.6027140625,8.98244234375L3.6365240625,9.04300234375L3.6428740625,9.05467234375Q3.8597040625,9.46405234375,3.8389540625,9.92607234375L3.8352640625,10.14088234375Q3.8270740625,10.60910234375,3.8514740625,10.68713234375Q3.8839140625,10.79093234375,3.9560040625,10.87175234375Q4.0085340625,10.93066234375,4.4079140625,11.16128234375L4.4168340624999995,11.16642234375L4.6884340625,11.32310234375L4.6942740625,11.32650234375Q5.0945040625,11.55660234375,5.1723140625,11.57270234375Q5.2782940625,11.59460234375,5.3835740625,11.57100234375Q5.4619140625,11.55350234375,5.8608440625,11.31430234375L5.8632840625,11.31280234375L6.0583540625,11.19603234375L6.1261940625,11.15636234375L6.1380540625,11.14961234375Q6.4982440625,10.95008234375,6.9090440625,10.93720234375L6.9232340625,10.93693234375L6.9947540625,10.93638234375L7.0709040625,10.93636234375L7.0897640625,10.93666234375Q7.4999540625,10.94956234375,7.8621840625,11.15008234375L7.8794740625,11.16003234375L7.9300940625,11.19029234375L8.1381940625,11.31540234375Q8.5401040625,11.55650234375,8.6189640625,11.57400234375Q8.7268740625,11.59850234375,8.8329240625,11.57660234375Q8.9098640625,11.56040234375,9.3156840625,11.32500234375L9.3167740625,11.32440234375L9.5892440625,11.16640234375L9.5933440625,11.16402234375Q9.9916840625,10.93233234375,10.0438240625,10.87355234375Q10.1156840625,10.79300234375,10.1485240625,10.68828234375Q10.1722040625,10.61224234375,10.1640340625,10.15334234375L10.1596440625,9.91148234375L10.1595440625,9.83069234375Q10.1656940625,9.35049234375,10.4146540625,8.948922343749999L10.4438140625,8.899312343750001Q10.6684940625,8.53639234375,11.0242140625,8.32403234375L11.0408140625,8.31448234375L11.1013140625,8.28092234375L11.1084140625,8.277032343750001L11.3012140625,8.17021234375L11.3093140625,8.165732343750001Q11.7140140625,7.94121234375,11.7678140625,7.88272234375Q11.8414140625,7.80306234375,11.8755140625,7.69950234375Q11.9007140625,7.62285234375,11.8993140625,7.15896234375L11.8982140625,6.84346234375Q11.8975140625,6.37543234375,11.8720140625,6.29820234375Q11.8382140625,6.19680234375,11.7651140625,6.11762234375Q11.7105140625,6.05817234375,11.3093140625,5.83514234375ZM8.9805840625,5.01957234375Q8.160234062499999,4.19922234375,7.0000840625,4.19922234375Q5.8399240625,4.19922234375,5.0195740625,5.01957234375Q4.199214062499999,5.83992234375,4.199214062499999,7.00008234375Q4.199214062499999,8.16023234375,5.0195740625,8.980582343750001Q5.8399240625,9.80094234375,7.0000740625,9.80094234375Q8.160234062499999,9.80094234375,8.9805840625,8.980582343750001Q9.8009340625,8.16023234375,9.8009340625,7.00008234375Q9.8009340625,5.83992234375,8.9805840625,5.01957234375ZM5.8681040625,5.86810234375Q6.3369840625,5.39922234375,7.0000740625,5.39922234375Q7.6631740625,5.39922234375,8.1320540625,5.86810234375Q8.6009340625,6.33698234375,8.6009340625,7.00008234375Q8.6009340625,7.66317234375,8.1320540625,8.13205234375Q7.6631740625,8.600942343749999,7.0000740625,8.600942343749999Q6.3369840625,8.600942343749999,5.8681040625,8.13205234375Q5.3992140625,7.66317234375,5.3992140625,7.00008234375Q5.3992140625,6.33698234375,5.8681040625,5.86810234375Z" fill-rule="evenodd"  fill-opacity="1" style="mix-blend-mode:passthrough"/></g></g></svg>