<svg xmlns="http://www.w3.org/2000/svg" xmlns:xlink="http://www.w3.org/1999/xlink" version="1.1" width="16.170211791992188" height="16.16845703125" viewBox="0 0 16.170211791992188 16.16845703125"><g><path d="M3.3574232568359377,16.084228515625L12.811013256835938,16.084228515625C14.616313256835937,16.084228515625,16.084213256835938,14.616328515625,16.086013256835937,12.811028515625L16.086013256835937,3.357438515625C16.086013256835937,1.552088515625,14.616313256835937,0.084228515625,12.812813256835938,0.084228515625L3.3574232568359377,0.084228515625C1.5520732568359374,0.084228515625,0.0842132568359375,1.552088515625,0.0842132568359375,3.357438515625L0.0842132568359375,12.811028515625C0.0842132568359375,14.616328515625,1.5520732568359374,16.084228515625,3.3574232568359377,16.084228515625ZM1.2270732568359375,3.357438515625C1.2270732568359375,2.182438515625,2.1824232568359374,1.227088515625,3.3574232568359377,1.227088515625L12.812813256835938,1.227088515625C13.987813256835938,1.227088515625,14.943113256835938,2.182438515625,14.943113256835938,3.357438515625L14.943113256835938,12.811028515625C14.943113256835938,13.986028515625,13.987813256835938,14.941328515625,12.812813256835938,14.941328515625L3.3574232568359377,14.941328515625C2.1824232568359374,14.941328515625,1.2270732568359375,13.986028515625,1.2270732568359375,12.811028515625L1.2270732568359375,3.357438515625ZM4.655763256835938,5.798648515625L8.084333256835938,5.798648515625C8.400403256835938,5.798648515625,8.655763256835938,5.543288515625,8.655763256835938,5.227218515625C8.655763256835938,4.911148515625,8.400403256835938,4.655788515625,8.084333256835938,4.655788515625L4.655763256835938,4.655788515625C4.339693256835938,4.655788515625,4.084333256835937,4.911148515625,4.084333256835937,5.227218515625C4.084333256835937,5.543288515625,4.339693256835938,5.798648515625,4.655763256835938,5.798648515625ZM4.655763256835938,8.655788515625L11.512913256835937,8.655788515625C11.829013256835937,8.655788515625,12.084313256835937,8.400438515625,12.084313256835937,8.084368515625C12.084313256835937,7.768288515625,11.829013256835937,7.512938515625,11.512913256835937,7.512938515625L4.655763256835938,7.512938515625C4.339693256835938,7.512938515625,4.084333256835937,7.768288515625,4.084333256835937,8.084368515625C4.084333256835937,8.400438515625,4.339693256835938,8.655788515625,4.655763256835938,8.655788515625ZM4.655763256835938,11.512928515625L11.512913256835937,11.512928515625C11.829013256835937,11.512928515625,12.084313256835937,11.257528515625,12.084313256835937,10.941528515625C12.084313256835937,10.625428515625,11.829013256835937,10.370028515625,11.512913256835937,10.370028515625L4.655763256835938,10.370028515625C4.339693256835938,10.370028515625,4.084333256835937,10.625428515625,4.084333256835937,10.941528515625C4.084333256835937,11.257528515625,4.339693256835938,11.512928515625,4.655763256835938,11.512928515625Z" fill-rule="evenodd"  fill-opacity="1" style="mix-blend-mode:passthrough"/><path d="M2.0515032568359377,15.904228515625Q2.6753432568359377,16.168428515625,3.3574232568359377,16.168428515625L12.811013256835938,16.168428515625Q13.493113256835937,16.168428515625,14.116913256835938,15.904228515625Q14.719313256835937,15.649128515625,15.184413256835937,15.184228515625Q15.649413256835938,14.719328515625,15.904913256835938,14.116928515625Q16.169513256835938,13.493228515625,16.170213256835936,12.811128515625L16.170213256835936,3.357438515625Q16.170213256835936,2.675418515625,15.905713256835938,2.051498515625Q15.650413256835938,1.449228515625,15.185313256835938,0.984263515625Q14.720213256835937,0.519399515625,14.117913256835937,0.264242515625Q13.494213256835938,0.000008815625000005434,12.812813256835938,0.000008815625000005434L3.3574232568359377,0.000008615624999999683Q2.6753332568359376,0.000008615624999999683,2.0515032568359377,0.26423951562500003Q1.4491632568359376,0.5193675156249999,0.9842592568359375,0.984274515625Q0.5193532568359376,1.449178515625,0.26422425683593753,2.051518515625Q-0.0000066431640625003174,2.675348515625,-0.0000066431640625003174,3.357438515625L-0.0000066431640625003174,12.811028515625Q-0.0000066431640625003174,13.493128515625,0.26422425683593753,14.116928515625Q0.5193502568359375,14.719228515625,0.9842592568359375,15.184228515625Q1.4491632568359376,15.649128515625,2.0515032568359377,15.904228515625ZM12.811013256835938,16.084228515625L3.3574232568359377,16.084228515625C1.5520732568359374,16.084228515625,0.0842132568359375,14.616328515625,0.0842132568359375,12.811028515625L0.0842132568359375,3.357438515625C0.0842132568359375,1.552088515625,1.5520732568359374,0.084228515625,3.3574232568359377,0.084228515625L12.812813256835938,0.084228515625C14.616313256835937,0.084228515625,16.086013256835937,1.552088515625,16.086013256835937,3.357438515625L16.086013256835937,12.811028515625C16.084213256835938,14.616328515625,14.616313256835937,16.084228515625,12.811013256835938,16.084228515625ZM3.3574232568359377,1.227088515625C2.1824232568359374,1.227088515625,1.2270732568359375,2.182438515625,1.2270732568359375,3.357438515625L1.2270732568359375,12.811028515625C1.2270732568359375,13.986028515625,2.1824232568359374,14.941328515625,3.3574232568359377,14.941328515625L12.812813256835938,14.941328515625C13.987813256835938,14.941328515625,14.943113256835938,13.986028515625,14.943113256835938,12.811028515625L14.943113256835938,3.357438515625C14.943113256835938,2.182438515625,13.987813256835938,1.227088515625,12.812813256835938,1.227088515625L3.3574232568359377,1.227088515625ZM1.3112932568359374,12.811028515625L1.3112932568359374,3.357438515625Q1.3112932568359374,2.511078515625,1.9111732568359374,1.911188515625Q2.5110632568359375,1.311308515625,3.3574232568359377,1.311308515625L12.812813256835938,1.311308515625Q13.659113256835937,1.311308515625,14.259013256835937,1.911188515625Q14.858913256835937,2.511078515625,14.858913256835937,3.357438515625L14.858913256835937,12.811028515625Q14.858913256835937,13.657428515625,14.259013256835937,14.257228515625Q13.659113256835937,14.857128515625,12.812813256835938,14.857128515625L3.3574232568359377,14.857128515625Q2.5110632568359375,14.857128515625,1.9111732568359374,14.257228515625Q1.3112932568359374,13.657428515625,1.3112932568359374,12.811028515625ZM4.191973256835937,5.691018515625Q4.383823256835938,5.882868515625,4.655763256835938,5.882868515625L8.084333256835938,5.882868515625Q8.356273256835937,5.882868515625,8.548123256835938,5.691018515625Q8.739983256835938,5.499158515625,8.739983256835938,5.227218515625Q8.739983256835938,4.955278515625,8.548123256835938,4.763428515625Q8.356273256835937,4.571568515625,8.084333256835938,4.571568515625L4.655763256835938,4.571568515625Q4.383823256835938,4.571568515625,4.191973256835937,4.763428515625Q4.000113256835938,4.955278515625,4.000113256835938,5.227218515625Q4.000113256835938,5.499158515625,4.191973256835937,5.691018515625ZM8.084333256835938,5.798648515625L4.655763256835938,5.798648515625C4.339693256835938,5.798648515625,4.084333256835937,5.543288515625,4.084333256835937,5.227218515625C4.084333256835937,4.911148515625,4.339693256835938,4.655788515625,4.655763256835938,4.655788515625L8.084333256835938,4.655788515625C8.400403256835938,4.655788515625,8.655763256835938,4.911148515625,8.655763256835938,5.227218515625C8.655763256835938,5.543288515625,8.400403256835938,5.798648515625,8.084333256835938,5.798648515625ZM4.191973256835937,8.548158515625Q4.383823256835938,8.740008515625,4.655763256835938,8.740008515625L11.512913256835937,8.740008515625Q11.784813256835937,8.740008515625,11.976713256835938,8.548158515625Q12.168513256835938,8.356298515625,12.168513256835938,8.084368515625Q12.168513256835938,7.812428515625,11.976713256835938,7.620568515625Q11.784813256835937,7.428718515625,11.512913256835937,7.428718515625L4.655763256835938,7.428718515625Q4.383823256835938,7.428718515625,4.191973256835937,7.620568515625Q4.000113256835938,7.812418515625,4.000113256835938,8.084368515625Q4.000113256835938,8.356298515625,4.191973256835937,8.548158515625ZM11.512913256835937,8.655788515625L4.655763256835938,8.655788515625C4.339693256835938,8.655788515625,4.084333256835937,8.400438515625,4.084333256835937,8.084368515625C4.084333256835937,7.768288515625,4.339693256835938,7.512938515625,4.655763256835938,7.512938515625L11.512913256835937,7.512938515625C11.829013256835937,7.512938515625,12.084313256835937,7.768288515625,12.084313256835937,8.084368515625C12.084313256835937,8.400438515625,11.829013256835937,8.655788515625,11.512913256835937,8.655788515625ZM4.191973256835937,11.405328515625Q4.383823256835938,11.597128515625,4.655763256835938,11.597128515625L11.512913256835937,11.597128515625Q11.784813256835937,11.597128515625,11.976713256835938,11.405328515625Q12.168513256835938,11.213428515625,12.168513256835938,10.941528515625Q12.168513256835938,10.669528515625,11.976713256835938,10.477728515625Q11.784813256835937,10.285828515625,11.512913256835937,10.285828515625L4.655763256835938,10.285828515625Q4.383823256835938,10.285828515625,4.191973256835937,10.477728515625Q4.000113256835938,10.669528515625,4.000113256835938,10.941528515625Q4.000113256835938,11.213428515625,4.191973256835937,11.405328515625ZM11.512913256835937,11.512928515625L4.655763256835938,11.512928515625C4.339693256835938,11.512928515625,4.084333256835937,11.257528515625,4.084333256835937,10.941528515625C4.084333256835937,10.625428515625,4.339693256835938,10.370028515625,4.655763256835938,10.370028515625L11.512913256835937,10.370028515625C11.829013256835937,10.370028515625,12.084313256835937,10.625428515625,12.084313256835937,10.941528515625C12.084313256835937,11.257528515625,11.829013256835937,11.512928515625,11.512913256835937,11.512928515625Z" fill-rule="evenodd" fill-opacity="1"/></g></svg>