<svg xmlns="http://www.w3.org/2000/svg" xmlns:xlink="http://www.w3.org/1999/xlink"  version="1.1" width="2.4499969482421875" height="12.25" viewBox="0 0 2.4499969482421875 12.25"><g><path d="M2.0912016357421876,0.358794Q1.7324116357421875,0,1.2250016357421876,0Q0.7175856357421875,0,0.3587916357421875,0.358794Q-0.0000028612578124999984,0.717588,-0.0000028612578124999984,1.225Q-0.0000028612578124999984,1.73241,0.3587916357421875,2.09121Q0.7175856357421875,2.45,1.2250016357421876,2.45Q1.7324116357421875,2.45,2.0912016357421876,2.09121Q2.4500016357421877,1.73241,2.4500016357421877,1.225Q2.4500016357421877,0.717588,2.0912016357421876,0.358794ZM2.0912016357421876,5.25879Q1.7324116357421875,4.9,1.2250016357421876,4.9Q0.7175866357421875,4.9,0.3587916357421875,5.25879Q-0.0000028612578124999984,5.61759,-0.0000028612578124999984,6.125Q-0.0000028612578124999984,6.63241,0.3587916357421875,6.99121Q0.7175856357421875,7.35,1.2250016357421876,7.35Q1.7324116357421875,7.35,2.0912016357421876,6.9912Q2.4500016357421877,6.63241,2.4500016357421877,6.125Q2.4500016357421877,5.61759,2.0912016357421876,5.25879ZM2.0912016357421876,10.1588Q1.7324116357421875,9.8,1.2250016357421876,9.8Q0.7175856357421875,9.8,0.3587916357421875,10.1588Q-0.0000028612578124999984,10.5176,-0.0000028612578124999984,11.025Q-0.0000028612578124999984,11.5324,0.3587906357421875,11.8912Q0.7175846357421874,12.25,1.2250016357421876,12.25Q1.7324116357421875,12.25,2.0912016357421876,11.8912Q2.4500016357421877,11.5324,2.4500016357421877,11.025Q2.4500016357421877,10.5176,2.0912016357421876,10.1588Z" fill-rule="evenodd"  fill-opacity="1" style="mix-blend-mode:passthrough"/></g></svg>