<svg xmlns="http://www.w3.org/2000/svg" xmlns:xlink="http://www.w3.org/1999/xlink"  version="1.1" width="13.077621459960938" height="16" viewBox="0 0 13.077621459960938 16"><g><path d="M11.6895,1.42466L11.6895,8C11.6895,8.38332,12.0002,8.69406,12.3836,8.69406C12.7669,8.69406,13.0776,8.38332,13.0776,8L13.0776,1.42466Q13.0776,0.834545,12.6603,0.417272Q12.2431,0,11.653,0L1.42466,0Q0.834545,0,0.417273,0.417273Q0,0.834545,0,1.42466L0,14.5753Q0,15.1655,0.417272,15.5827Q0.834545,16,1.42466,16L6.53881,16C6.92213,16,7.23288,15.6893,7.23288,15.3059C7.23288,14.9226,6.92213,14.6119,6.53881,14.6119L1.42466,14.6119Q1.38813,14.6119,1.38813,14.5753L1.38813,1.42466Q1.38813,1.38813,1.42466,1.38813L11.653,1.38813Q11.6895,1.38813,11.6895,1.42466ZM3.61637,4.38377L9.46111,4.38377C9.84443,4.38377,10.1552,4.69451,10.1552,5.07783C10.1552,5.46115,9.84443,5.77189,9.46111,5.77189L3.61637,5.77189C3.23305,5.77189,2.9223,5.46115,2.9223,5.07783C2.9223,4.69451,3.23305,4.38377,3.61637,4.38377ZM3.61637,7.30614L6.53874,7.30614C6.92206,7.30614,7.2328,7.61688,7.2328,8.0002C7.2328,8.38352,6.92206,8.69427,6.53874,8.69427L3.61637,8.69427C3.23305,8.69427,2.9223,8.38352,2.9223,8.0002C2.9223,7.61688,3.23305,7.30614,3.61637,7.30614ZM11.4338,11.8681L11.8927,12.327C12.0229,12.4572,12.1994,12.5303,12.3835,12.5303C12.7668,12.5303,13.0775,12.2195,13.0775,11.8362C13.0775,11.6522,13.0044,11.4756,12.8743,11.3455L12.3263,10.7975L11.2304,9.70161C11.1003,9.57145,10.9237,9.49833,10.7396,9.49833C10.5556,9.49833,10.379,9.57145,10.2489,9.70161L8.60503,11.3455C8.47487,11.4756,8.40175,11.6522,8.40175,11.8362C8.40175,12.2195,8.71249,12.5303,9.09581,12.5303C9.27989,12.5303,9.45643,12.4572,9.58683,12.3268L10.0457,11.8679L10.0457,15.3059C10.0457,15.6893,10.3564,16,10.7397,16C11.123,16,11.4338,15.6893,11.4338,15.3059L11.4338,11.8681Z" fill-rule="evenodd" fill-opacity="1" style="mix-blend-mode:passthrough"/></g></svg>