<svg xmlns="http://www.w3.org/2000/svg" xmlns:xlink="http://www.w3.org/1999/xlink"  version="1.1" width="15.999786376953125" height="15.99993896484375" viewBox="0 0 15.999786376953125 15.99993896484375"><g><path d="M2.48644,2.19751C2.49325,2.19731,2.50009,2.1972,2.50696,2.1972L4.66966,2.1972L5.68154,0.351268C5.80028,0.134657,6.02765,0,6.27467,0L9.74897,0C9.99806,0,10.227,0.136896,10.3449,0.356328L11.3337,2.1972L13.4922,2.1972C13.4991,2.1972,13.5059,2.19731,13.5127,2.19751L15.3234,2.19751C15.6969,2.19751,15.9998,2.50035,15.9998,2.87392C15.9998,3.24748,15.6969,3.55032,15.3234,3.55032L14.1686,3.55032L14.1686,15.3235C14.1686,15.6971,13.8658,15.9999,13.4922,15.9999L2.50696,15.9999C2.13339,15.9999,1.83055,15.6971,1.83055,15.3235L1.83055,3.55032L0.676405,3.55032C0.302837,3.55032,0,3.24748,0,2.87392C0,2.50035,0.302837,2.19751,0.676405,2.19751L2.48644,2.19751ZM3.18336,3.55032L3.18336,14.6471L12.8158,14.6471L12.8158,3.55032L3.18336,3.55032ZM6.21247,2.19705L9.79797,2.19705L9.34449,1.35281L6.67526,1.35281L6.21247,2.19705ZM5.85899,11.2952L5.85899,6.53496C5.85899,6.16139,6.16183,5.85855,6.5354,5.85855C6.90897,5.85855,7.2118,6.16139,7.2118,6.53496L7.2118,11.2952C7.2118,11.6688,6.90897,11.9716,6.5354,11.9716C6.16183,11.9716,5.85899,11.6688,5.85899,11.2952ZM8.78827,11.2952L8.78827,6.53496C8.78827,6.16139,9.09111,5.85855,9.46467,5.85855C9.83824,5.85855,10.1411,6.16139,10.1411,6.53496L10.1411,11.2952C10.1411,11.6688,9.83824,11.9716,9.46467,11.9716C9.09111,11.9716,8.78827,11.6688,8.78827,11.2952Z" fill-rule="evenodd" fill-opacity="1"/></g></svg>