<svg xmlns="http://www.w3.org/2000/svg" xmlns:xlink="http://www.w3.org/1999/xlink" version="1.1" width="16.00414276123047" height="15.80181884765625" viewBox="0 0 16.00414276123047 15.80181884765625"><g><path d="M0.685,15.8018C0.702771,15.8018,0.720536,15.8011,0.738254,15.7998L15.2659,15.7998C15.2836,15.8011,15.3014,15.8018,15.3191,15.8018C15.6975,15.8018,16.0041,15.4951,16.0041,15.1168C16.0041,14.7385,15.6975,14.4318,15.3191,14.4318C15.3014,14.4318,15.2836,14.4325,15.2659,14.4339L0.738254,14.4339C0.720536,14.4325,0.702771,14.4318,0.685,14.4318C0.306685,14.4318,0,14.7385,0,15.1168C0,15.4951,0.306685,15.8018,0.685,15.8018ZM10.2444,0.196993C10.5103,-0.0655934,10.9379,-0.0656745,11.2039,0.196811L14.1734,3.12689C14.1734,3.12689,14.1798,3.13334,14.1798,3.13334C14.3071,3.26226,14.3778,3.43644,14.3766,3.61756C14.3754,3.79868,14.3023,3.9719,14.1734,4.09912L5.76575,12.3952C5.63795,12.5213,5.46563,12.592,5.28608,12.592L2.31161,12.592C1.93444,12.592,1.62868,12.2863,1.62868,11.9091L1.62868,8.99027C1.62868,8.80766,1.70182,8.63265,1.83176,8.50434L10.2444,0.196993ZM2.99454,9.27567L10.7244,1.64253L12.7214,3.613L5.00587,11.2262L2.99454,11.2262L2.99454,9.27567Z" fill-rule="evenodd" fill-opacity="1"/></g></svg>