<?xml version="1.0" encoding="UTF-8"?>
<svg width="16px" height="18px" viewBox="0 0 16 18" version="1.1" xmlns="http://www.w3.org/2000/svg" xmlns:xlink="http://www.w3.org/1999/xlink">
    <title>流程设计</title>
    <g id="页面-1备份" stroke="none" stroke-width="1" fill-rule="evenodd">
        <g id="16系统设置-工单管理" transform="translate(-531, -310)" fill-rule="nonzero">
            <g id="组-20备份" transform="translate(511, 193)">
                <g id="编组备份-3" transform="translate(20.35, 115)">
                    <path d="M5.35564706,2.35 C7.31386804,2.35 7.88823529,3.26875092 7.88823529,5.4 C7.88823529,7.53066113 7.31327021,8.45 5.35564706,8.45 L4.594,8.449 L4.594,9.949 L9.065,9.949 L9.06911945,9.81479906 C9.09554356,9.10710183 9.18497379,8.81861222 9.46784516,8.50728452 L9.53661641,8.43483305 C9.97327225,7.99503173 10.3044784,7.95 11.6852941,7.95 L12.894478,7.95047654 C14.0935536,7.95621793 14.4113088,8.01944715 14.8220327,8.43548776 C15.2559726,8.87379524 15.3,9.20477266 15.3,10.6 C15.3,11.9952273 15.2559726,12.3262048 14.8233336,12.7631945 C14.3883802,13.2050362 14.0576734,13.25 12.6735294,13.25 L11.6852941,13.25 C10.3023312,13.25 9.97167495,13.2050258 9.53679083,12.7645122 C9.19928202,12.4236064 9.0976462,12.1476287 9.06914183,11.3853417 L9.065,11.249 L4.594,11.249 L4.59444294,12.4718785 C4.60019267,14.7626698 4.68503266,15.3698556 5.07483272,15.7838322 L5.12117587,15.8308261 C5.57209863,16.2693643 6.18931813,16.35 8.88529412,16.35 L9.065,16.35 L9.06911945,16.2147991 C9.09554356,15.5071018 9.18497379,15.2186122 9.46784516,14.9072845 L9.53661641,14.834833 C9.97327225,14.3950317 10.3044784,14.35 11.6852941,14.35 L12.894478,14.3504765 C14.0935536,14.3562179 14.4113088,14.4194471 14.8220327,14.8354878 C15.2559726,15.2737952 15.3,15.6047727 15.3,17 C15.3,18.3952273 15.2559726,18.7262048 14.8233336,19.1631945 C14.3883802,19.6050362 14.0576734,19.65 12.6735294,19.65 L11.6852941,19.65 C10.3023312,19.65 9.97167495,19.6050258 9.53679083,19.1645122 C9.19928202,18.8236064 9.0976462,18.5476287 9.06914183,17.7853417 L9.065,17.65 L8.88529412,17.65 C5.86233365,17.65 5.08044874,17.5610162 4.29654706,16.840139 L4.21535462,16.7632892 C3.39350146,15.9658258 3.29411765,15.2479494 3.29411765,12.2 L3.29411765,10.6 L3.294,8.449 L2.53258824,8.45 C0.639641291,8.45 0.0398287658,7.5914783 0.00194453851,5.60909413 L5.32907052e-15,5.4 C5.32907052e-15,3.26933887 0.574965081,2.35 2.53258824,2.35 L5.35564706,2.35 Z M12.8530601,15.6503811 L11.5056711,15.6503808 C10.7117374,15.6539555 10.5264491,15.6829811 10.4604474,15.7494548 C10.3872998,15.8235491 10.3588235,16.03823 10.3588235,17 C10.3588235,17.9615727 10.3873282,18.1758573 10.4612709,18.2505452 C10.5315578,18.3217418 10.7393158,18.35 11.6852941,18.35 L12.6735294,18.35 C13.6191502,18.35 13.8275388,18.3216669 13.8982026,18.2498878 C13.9714953,18.1758573 14,17.9615727 14,17 C14,16.0384273 13.9714953,15.8241427 13.8975526,15.7494548 C13.8272657,15.6782582 13.6195077,15.65 12.6735294,15.65 L12.8530601,15.6503811 Z M12.8530601,9.25038113 L11.5056711,9.25038081 C10.7117374,9.25395546 10.5264491,9.28298111 10.4604474,9.34945475 C10.3872998,9.42354914 10.3588235,9.63822995 10.3588235,10.6 C10.3588235,11.4974678 10.3836542,11.7439648 10.4470832,11.8335663 L10.4612709,11.8505452 C10.5315578,11.9217418 10.7393158,11.95 11.6852941,11.95 L12.6735294,11.95 C13.6191502,11.95 13.8275388,11.9216669 13.8982026,11.8498878 C13.9714953,11.7758573 14,11.5615727 14,10.6 C14,9.63842734 13.9714953,9.42414268 13.8975526,9.34945475 C13.8272657,9.27825818 13.6195077,9.25 12.6735294,9.25 L12.8530601,9.25038113 Z M2.4075646,3.65124788 C1.44207848,3.67173133 1.3,3.95664167 1.3,5.4 L1.30078721,5.57451923 C1.3137776,6.92339359 1.49687175,7.15 2.53258824,7.15 L5.35564706,7.15 C6.43407028,7.15 6.58823529,6.90349826 6.58823529,5.4 C6.58823529,3.89588369 6.4345184,3.65 5.35564706,3.65 L2.53258824,3.65 L2.4075646,3.65124788 Z" id="流程设计"></path>
                </g>
            </g>
        </g>
    </g>
</svg>
