<svg xmlns="http://www.w3.org/2000/svg" xmlns:xlink="http://www.w3.org/1999/xlink"  version="1.1" width="20" height="20" viewBox="0 0 20 20"><defs><clipPath id="master_svg0_49_9046"><rect x="0" y="0" width="20" height="20" rx="0"/></clipPath></defs><g clip-path="url(#master_svg0_49_9046)"><g><path d="M17.00000002861023,5.405416011810303L6.50000002861023,5.405416011810303L6.50000002861023,5.404166011810303C6.13825002861023,5.404166011810303,5.8450000286102295,5.1109160118103025,5.8450000286102295,4.749166011810303C5.8450000286102295,4.3874190118103025,6.13825002861023,4.094165981810303,6.50000002861023,4.094165981810303L6.50000002861023,4.092916011810303L17.00000002861023,4.092916011810303L17.00000002861023,4.094165981810303C17.36170002861023,4.094165981810303,17.65500002861023,4.3874190118103025,17.65500002861023,4.749166011810303C17.65500002861023,5.1109160118103025,17.36170002861023,5.404166011810303,17.00000002861023,5.404166011810303L17.00000002861023,5.405416011810303ZM3.6637500286102296,4.748291011810303C3.6637500286102296,4.911233011810303,3.6030200286102296,5.068326011810303,3.4934100286102296,5.188896011810303L3.4855800286102294,5.199356011810303C3.3605200286102295,5.335066011810303,3.1845420286102293,5.412916011810303,3.0000000286102297,5.412916011810303C2.6382530286102295,5.412916011810303,2.3450000286102295,5.119666011810303,2.3450000286102295,4.757916011810303C2.3450000286102295,4.5949730118103025,2.4057333286102294,4.437881011810303,2.5153410286102296,4.317314011810303L2.5231660286102295,4.3068480118103025C2.6482280286102293,4.171139011810303,2.8242080286102293,4.093291043810303,3.0087500286102293,4.093291043810303C3.3705000286102296,4.093291043810303,3.6637500286102296,4.386544011810303,3.6637500286102296,4.748291011810303ZM17.00000002861023,10.655416011810303L6.50000002861023,10.655416011810303L6.50000002861023,10.654166011810304C6.13825002861023,10.654166011810304,5.8450000286102295,10.360916011810303,5.8450000286102295,9.999166011810303C5.8450000286102295,9.637416011810302,6.13825002861023,9.344166011810302,6.50000002861023,9.344166011810302L6.50000002861023,9.342916011810303L17.00000002861023,9.342916011810303L17.00000002861023,9.344166011810302C17.36170002861023,9.344166011810302,17.65500002861023,9.637416011810302,17.65500002861023,9.999166011810303C17.65500002861023,10.360916011810303,17.36170002861023,10.654166011810304,17.00000002861023,10.654166011810304L17.00000002861023,10.655416011810303ZM3.6637500286102296,9.998296011810304C3.6637500286102296,10.161236011810303,3.6030100286102296,10.318336011810302,3.4934000286102296,10.438906011810303L3.48557002861023,10.449376011810303C3.3605100286102294,10.585076011810303,3.1845350286102296,10.662916011810303,3.0000000286102297,10.662916011810303C2.6382530286102295,10.662916011810303,2.3450000286102295,10.369666011810303,2.3450000286102295,10.007916011810302C2.3450000286102295,9.844966011810303,2.4057383286102296,9.687866011810303,2.5153540286102296,9.567296011810303L2.5231790286102296,9.556836011810303C2.6482400286102297,9.421136011810303,2.8242140286102293,9.343296011810303,3.0087500286102293,9.343296011810303C3.3705000286102296,9.343296011810303,3.6637500286102296,9.636546011810303,3.6637500286102296,9.998296011810304ZM17.00000002861023,15.905416011810303L6.50000002861023,15.905416011810303L6.50000002861023,15.904116011810302C6.13825002861023,15.904116011810302,5.8450000286102295,15.610916011810303,5.8450000286102295,15.249116011810303C5.8450000286102295,14.887416011810302,6.13825002861023,14.594116011810303,6.50000002861023,14.594116011810303L6.50000002861023,14.592916011810303L17.00000002861023,14.592916011810303L17.00000002861023,14.594116011810303C17.36170002861023,14.594116011810303,17.65500002861023,14.887416011810302,17.65500002861023,15.249116011810303C17.65500002861023,15.610916011810303,17.36170002861023,15.904116011810302,17.00000002861023,15.904116011810302L17.00000002861023,15.905416011810303ZM3.6637500286102296,15.248316011810303C3.6637500286102296,15.411216011810303,3.6030300286102293,15.568316011810303,3.4934400286102294,15.688816011810303L3.485610028610229,15.699316011810303C3.3605500286102297,15.835016011810303,3.1845580286102297,15.912916011810303,3.0000000286102297,15.912916011810303C2.6382530286102295,15.912916011810303,2.3450000286102295,15.619616011810303,2.3450000286102295,15.257916011810302C2.3450000286102295,15.095016011810303,2.4057219286102294,14.937916011810303,2.5153110286102294,14.817316011810302L2.5231360286102293,14.806916011810303C2.6481990286102297,14.671116011810303,2.8241920286102293,14.593316011810304,3.0087500286102293,14.593316011810304C3.3705000286102296,14.593316011810304,3.6637500286102296,14.886516011810302,3.6637500286102296,15.248316011810303Z" fill-rule="evenodd" fill-opacity="1" style="mix-blend-mode:passthrough"/></g></g></svg>
