<?xml version="1.0" encoding="UTF-8"?>
<svg width="24px" height="24px" viewBox="0 0 24 24" version="1.1" xmlns="http://www.w3.org/2000/svg" xmlns:xlink="http://www.w3.org/1999/xlink">
    <title>形状结合备份</title>
    <g id="流程设计器" stroke="none" stroke-width="1"  fill-rule="evenodd">
        <path d="M20.9988453,0 C22.6556331,0 23.9986804,1.34247282 23.9986804,2.99995928 C23.9986804,4.65744574 22.656293,5.99991856 20.9988453,5.99991856 C20.8275456,5.99770939 20.6569673,5.98050796 20.4890989,5.9486109 L18.25,9.323 L17.8416451,10.038413 C18.7861853,10.8147274 19.4209564,11.9555005 19.4923671,13.2548661 L19.4990928,13.5003054 C19.4989943,14.644427 19.0575672,15.7455544 18.2645846,16.5797511 L18.343,16.491 L19.9354833,18.2043641 C20.2017041,18.1002812 20.4819934,18.0350177 20.7674945,18.010737 L20.9988453,18.0000814 C22.6556331,18.0000814 24,19.3422285 24,20.999715 C24,22.6572014 22.6576126,23.9996742 21.000165,23.9996742 C19.3427173,23.9996742 18.0003299,22.6572014 18.0003299,20.999715 C17.9999869,20.5364993 18.1077186,20.0814109 18.3127905,19.6689517 L16.5061966,17.7254758 C16.0358574,17.8993414 15.5314288,18.0000814 15.0004949,18.0000814 C13.5238357,18.0000814 12.2249959,17.2785145 11.4045197,16.1790615 L11.4045197,16.1790615 L11.39,16.186 L5.80198675,19.9283633 C5.90678899,20.2013406 5.97117868,20.4886287 5.99247638,20.7813027 L6.00032991,21.0000407 C6.00032991,22.6575272 4.65794249,24 3.00049486,24 C1.34304723,24 0.000659811954,22.6575272 0.000659811954,21.0000407 C0.000659811954,19.3425543 1.34304723,18.0000814 3.00049486,18.0000814 C3.44807726,18.0027254 3.88918525,18.1058808 4.29042723,18.3017388 L4.29042723,18.3017388 L4.362,18.262 L10.5513285,14.1179591 C10.5332122,14.0063927 10.5193883,13.893475 10.5106619,13.779141 L10.4999175,13.5003054 C10.4999175,12.8944082 10.6308779,12.3232267 10.8526294,11.798625 L4.5197313,7.07384306 C4.07462234,7.34135404 3.55771339,7.49973532 2.99983505,7.49973532 C1.34238742,7.49973532 0,6.1572625 0,4.49977604 C0,2.84228958 1.34238742,1.49981676 2.99983505,1.49981676 C4.65728267,1.49981676 5.99967009,2.84228958 5.99967009,4.49977604 C5.999403,4.7903788 5.95657781,5.07887961 5.87296627,5.35641711 L12.1422793,10.0340671 C12.9194049,9.39019997 13.9118817,8.99857478 14.9991752,8.99857478 C15.2624841,9.00067525 15.5245372,9.02604813 15.7822474,9.07411688 L18.6099954,4.80991574 C18.2148682,4.29123793 17.9979299,3.65634757 17.9990103,2.99930775 C17.9990103,1.34247282 19.3420575,0 20.9988453,0 Z" id="形状结合备份" fill-rule="nonzero"></path>
    </g>
</svg>