<?xml version="1.0" encoding="UTF-8"?>
<svg width="24px" height="24px" viewBox="0 0 24 24" version="1.1" xmlns="http://www.w3.org/2000/svg" xmlns:xlink="http://www.w3.org/1999/xlink">
    <title>选择抄送人备份</title>
    <g id="流程设计器" stroke="none" stroke-width="1"  fill-rule="evenodd">
        <g id="选择抄送人备份" transform="translate(-0.001761, 0.000000)">
            <path d="M23.0500829,0.0514449469 L0.435567157,9.27197444 C0.20387979,9.37075285 0.0410890833,9.58386925 0.00674332129,9.83340854 C-0.0276903565,10.0828013 0.0713321093,10.331989 0.26753081,10.4899583 L5.94105801,14.9898115 C6.19601375,15.1909432 6.55154514,15.1863428 6.80063983,14.9794092 L16.2799822,7.07748795 L8.02472044,16.5333451 C8.0200316,16.5387367 8.01510832,16.5437767 8.00971615,16.5483479 C7.97733384,16.5748959 7.95866639,16.6145127 7.95866639,16.6563859 L7.95866639,21.6438605 C7.95866639,22.3473527 8.77177007,22.7073327 9.2713368,22.2438859 C9.29067827,22.2249858 9.3086717,22.2049723 9.32537569,22.1837866 L11.1495108,19.9788978 C11.3849785,19.6890677 11.8099047,19.6429457 12.1020489,19.8753138 L17.1170283,23.850361 C17.2988088,23.9965214 17.5430975,24.0390099 17.7635609,23.962765 C17.9857534,23.8842346 18.1537018,23.699395 18.2105833,23.4708069 L23.9786786,0.8899919 C24.1212193,0.327502914 23.5781343,-0.163077968 23.0500829,0.0514449469 Z" id="Fill-1"></path>
        </g>
    </g>
</svg>