<?xml version="1.0" encoding="UTF-8"?>
<svg width="22px" height="22px" viewBox="0 0 22 22" version="1.1" xmlns="http://www.w3.org/2000/svg" xmlns:xlink="http://www.w3.org/1999/xlink">
    <title>完成备份</title>
    <g id="流程设计器" stroke="none" stroke-width="1"  fill-rule="evenodd">
        <g id="完成备份" transform="translate(0.002007, 0.000000)" fill-rule="nonzero">
            <g id="编组-8">
                <path d="M11,0 C17.0751322,0 22,4.92486775 22,11 C22,17.0751322 17.0751322,22 11,22 C4.92486775,22 0,17.0751322 0,11 C0,4.92486775 4.92486775,0 11,0 Z M11,1.6 C5.80852335,1.6 1.6,5.80852335 1.6,11 C1.6,16.1914766 5.80852335,20.4 11,20.4 C16.1914766,20.4 20.4,16.1914766 20.4,11 C20.4,5.80852335 16.1914766,1.6 11,1.6 Z M17.3274112,7.60731543 L17.3954077,7.68137962 C17.6520704,7.99833164 17.6266991,8.45194942 17.3512115,8.73855615 L17.2771473,8.8065527 L9.50568768,15.0997566 C9.18873566,15.3564193 8.73511787,15.331048 8.44851114,15.0555603 L8.3805146,14.9814962 L4.60459225,10.3186204 C4.32654101,9.97525569 4.37948802,9.47149855 4.72285271,9.1934473 C5.03980473,8.93678462 5.49342251,8.96215594 5.78002924,9.23764357 L5.84802579,9.31170776 L9.12049182,13.3528668 L16.2702347,7.56311916 C16.5871867,7.30645647 17.0408045,7.3318278 17.3274112,7.60731543 Z" id="形状结合"></path>
            </g>
        </g>
    </g>
</svg>