<?xml version="1.0" encoding="UTF-8"?>
<svg width="24px" height="24px" viewBox="0 0 24 24" version="1.1" xmlns="http://www.w3.org/2000/svg" xmlns:xlink="http://www.w3.org/1999/xlink">
    <title>选择审批人</title>
    <g id="流程设计器" stroke="none" stroke-width="1"  fill-rule="evenodd">
        <g id="选择审批人" transform="translate(0.857143, 0.000000)"  fill-rule="nonzero">
            <path d="M7.0723303,13.5002238 C7.78186356,13.5002238 8.3578064,13.0061167 8.35780637,12.3956437 L8.35780637,12.2201999 C8.35732972,12.0414555 8.31164486,11.865809 8.22510066,11.7099806 C5.83639766,10.7369834 4.97292577,8.6074892 4.97292577,6.13695359 C4.97292577,2.74712814 7.29704532,0 11.1428571,0 C14.9886689,0 17.3526003,2.74802328 17.3526003,6.13695359 C17.3526003,8.60748918 16.4502013,10.7378786 14.0614983,11.7099806 C13.9749541,11.865809 13.9292693,12.0414555 13.9287926,12.2201999 L13.9287926,12.3956437 C13.9287926,13.0061167 14.5047354,13.5002238 15.2142687,13.5002238 L18.7159304,13.5002238 C20.6870527,13.5002238 22.2857143,14.8742354 22.2857143,16.5687006 L22.2857143,18.4395047 C22.2857143,19.1009996 21.6619974,19.6362823 20.8931889,19.6362823 L1.39252537,19.6362823 C0.623716891,19.6362823 0,19.1009996 0,18.4395047 L0,16.5687006 C0,14.8742354 1.59866159,13.5002238 3.57066862,13.5002238 L7.0723303,13.5002238 Z M1.63316509,21.0917499 L20.6525492,21.0917499 C21.5540634,21.0917499 22.2848296,21.7425034 22.2848296,22.5463225 L22.2848296,22.5821274 C22.2848296,23.3653588 21.5726422,24 20.6923609,24 L1.59423807,24 C0.714841484,24 0.0017693889,23.3653588 0.0017693889,22.5821274 L0.0017693889,22.5463225 C0.0017693889,21.7425034 0.732535567,21.0917499 1.63404978,21.0917499 L1.63316509,21.0917499 Z" id="审批人1"></path>
        </g>
    </g>
</svg>