<?xml version="1.0" encoding="UTF-8"?>
<svg width="24px" height="22px" viewBox="0 0 24 22" version="1.1" xmlns="http://www.w3.org/2000/svg" xmlns:xlink="http://www.w3.org/1999/xlink">
    <title>开始</title>
    <g id="流程设计器" stroke="none" stroke-width="1"  fill-rule="evenodd">
        <g id="开始" transform="translate(0.281507, 0.000000)">
            <path d="M7.41849271,4.3 C7.41849271,1.92517558 9.34366829,4.36248169e-16 11.7184927,0 C14.0933171,-4.36248169e-16 16.0184927,1.92517558 16.0184927,4.3 C16.0184927,6.40137038 14.5111481,8.15068157 12.5187167,8.5256759 L12.5184927,12 L19.4735948,12 C20.3890913,12 21.1399148,12.7523932 21.2127084,13.7093504 L21.2184927,13.862069 L21.2184927,18 L23.2369854,18 C23.3338747,18 23.4274707,18.0351673 23.5003873,18.0989693 C23.6666419,18.2444421 23.6834889,18.4971472 23.5380161,18.6634018 L23.5380161,18.6634018 L20.9195234,21.6559649 C20.9078296,21.6693292 20.8952589,21.6819 20.8818946,21.6935938 C20.7156399,21.8390666 20.4629349,21.8222196 20.317462,21.6559649 L20.317462,21.6559649 L17.6989693,18.6634018 C17.6351673,18.5904852 17.6,18.4968893 17.6,18.4 C17.6,18.1790861 17.7790861,18 18,18 L18,18 L19.6674723,18 L19.6674723,13.862069 C19.6674723,13.7668475 19.6071932,13.6866503 19.5251351,13.662563 L19.4735948,13.6551724 L3.96339067,13.6551724 C3.87416099,13.6551724 3.79901025,13.7194993 3.77643861,13.8070677 L3.76951312,13.862069 L3.76951312,18 L5.63698542,18 C5.73387468,18 5.82747066,18.0351673 5.90038726,18.0989693 C6.06664191,18.2444421 6.08348892,18.4971472 5.9380161,18.6634018 L5.9380161,18.6634018 L3.31952339,21.6559649 C3.30782962,21.6693292 3.29525886,21.6819 3.28189455,21.6935938 C3.1156399,21.8390666 2.86293485,21.8222196 2.71746203,21.6559649 L2.71746203,21.6559649 L0.0989693221,18.6634018 C0.035167299,18.5904852 4.77395901e-15,18.4968893 4.77395901e-15,18.4 C4.77395901e-15,18.1790861 0.1790861,18 0.4,18 L0.4,18 L2.21849271,18 L2.21849271,13.862069 C2.21849271,12.8850963 2.92354144,12.0838545 3.82028191,12.0061727 L3.96339067,12 L10.9184927,12 L10.9182688,8.5256759 C8.92583728,8.15068157 7.41849271,6.40137038 7.41849271,4.3 Z" id="形状结合"></path>
        </g>
    </g>
</svg>