<svg xmlns="http://www.w3.org/2000/svg" xmlns:xlink="http://www.w3.org/1999/xlink" version="1.1" width="16.000732421875" height="16.000717163085938" viewBox="0 0 16.000732421875 16.000717163085938"><g><path d="M1.23077,12.9231L1.23077,3.07692C1.23077,2.03077,2.03077,1.23077,3.07692,1.23077L12.9231,1.23077C13.9692,1.23077,14.7692,2.03077,14.7692,3.07692L14.7692,4.73846C14.7692,5.10769,15.0154,5.35385,15.3846,5.35385C15.7538,5.35385,16,5.10769,16,4.73846L16,2.46154C16,1.10769,14.8923,0,13.5385,0L2.46154,0C1.10769,0,0,1.10769,0,2.46154L0,13.5385C0,14.8923,1.10769,16,2.46154,16L4.73846,16C5.10769,16,5.35385,15.7538,5.35385,15.3846C5.35385,15.0154,5.10769,14.7692,4.73846,14.7692L3.07692,14.7692C2.03077,14.7692,1.23077,13.9692,1.23077,12.9231ZM11.3845,4.92315L3.99991,4.92315C3.69221,4.92315,3.38452,4.677,3.38452,4.30777C3.38452,4.00007,3.63068,3.69238,3.99991,3.69238L11.3845,3.69238C11.6922,3.69238,11.9999,3.93854,11.9999,4.30777C11.9999,4.677,11.6922,4.92315,11.3845,4.92315ZM8.67683,8.61546L3.99991,8.61546C3.69221,8.61546,3.38452,8.36931,3.38452,8.00007C3.38452,7.69238,3.63068,7.38469,3.99991,7.38469L8.67683,7.38469C9.04606,7.38469,9.29221,7.63084,9.29221,8.00007C9.29221,8.36931,8.98452,8.61546,8.67683,8.61546ZM9.1045,11.6601L12.6618,8.10288Q13.2346,7.53,14.0448,7.53Q14.855,7.53,15.4278,8.10288Q16.0007,8.67575,16.0007,9.48592Q16.0007,10.2961,15.4278,10.869L11.8706,14.4262Q11.5393,14.7575,11.396,14.869Q11.1435,15.0668,10.8527,15.2049Q10.6886,15.283,10.2452,15.4308L8.99564,15.847L8.69506,15.9475Q8.17959,16.1196,7.79538,15.7353Q7.41116,15.3511,7.58322,14.8357L8.09994,13.2859Q8.24746,12.8427,8.32571,12.6777Q8.46433,12.3876,8.6618,12.1342Q8.7729,11.9917,9.1045,11.6601ZM13.3423,8.78381L13.1723,8.95324Q13.1896,9.01853,13.2121,9.0827Q13.3636,9.51638,13.6893,9.84022Q14.0138,10.1667,14.4472,10.3183Q14.5118,10.3408,14.5773,10.3581L14.7471,10.1882Q15.0358,9.89753,15.0351,9.48713Q15.0344,9.07673,14.7442,8.78653Q14.454,8.49633,14.0436,8.49562Q13.6334,8.4949,13.3423,8.78381ZM8.97334,14.8404L8.69062,14.5575L9.00701,13.6086Q9.14344,13.1999,9.1951,13.0913Q9.28807,12.8962,9.42108,12.7257Q9.4951,12.6304,9.79947,12.3266L12.4264,9.69971Q12.6434,10.1576,13.0083,10.5214Q13.3726,10.8872,13.8307,11.1046L11.2038,13.7316Q10.9017,14.0336,10.8044,14.1099Q10.6334,14.2427,10.4387,14.336Q10.3301,14.3877,9.92137,14.5241L8.97334,14.8404Z" fill-rule="evenodd" fill-opacity="1"/></g></svg>