<svg xmlns="http://www.w3.org/2000/svg" xmlns:xlink="http://www.w3.org/1999/xlink" version="1.1" width="16" height="16" viewBox="0 0 16 16"><g><path d="M1.23077,12.9231L1.23077,3.07692C1.23077,2.03077,2.03077,1.23077,3.07692,1.23077L12.9231,1.23077C13.9692,1.23077,14.7692,2.03077,14.7692,3.07692L14.7692,4.73846C14.7692,5.10769,15.0154,5.35385,15.3846,5.35385C15.7538,5.35385,16,5.10769,16,4.73846L16,2.46154C16,1.10769,14.8923,0,13.5385,0L2.46154,0C1.10769,0,0,1.10769,0,2.46154L0,13.5385C0,14.8923,1.10769,16,2.46154,16L4.73846,16C5.10769,16,5.35385,15.7538,5.35385,15.3846C5.35385,15.0154,5.10769,14.7692,4.73846,14.7692L3.07692,14.7692C2.03077,14.7692,1.23077,13.9692,1.23077,12.9231ZM11.3845,4.92315L3.99991,4.92315C3.69221,4.92315,3.38452,4.677,3.38452,4.30777C3.38452,4.00007,3.63068,3.69238,3.99991,3.69238L11.3845,3.69238C11.6922,3.69238,11.9999,3.93854,11.9999,4.30777C11.9999,4.677,11.6922,4.92315,11.3845,4.92315ZM8.67683,8.61546L3.99991,8.61546C3.69221,8.61546,3.38452,8.36931,3.38452,8.00007C3.38452,7.69238,3.63068,7.38469,3.99991,7.38469L8.67683,7.38469C9.04606,7.38469,9.29221,7.63084,9.29221,8.00007C9.29221,8.36931,8.98452,8.61546,8.67683,8.61546ZM8.7706,11.1252Q8.49227,10.847,8.64287,10.4834Q8.79357,10.1199,9.18698,10.12L13.0753,10.12Q14.2858,10.1196,15.1419,10.9754Q15.998,11.8313,15.998,13.0418Q15.998,14.2524,15.1419,15.1083Q14.2858,15.9641,13.0752,15.9637L9.57576,15.9637Q9.33186,15.9637,9.1594,15.7912Q8.98693,15.6188,8.98693,15.3748Q8.98693,15.1309,9.1594,14.9585Q9.33186,14.786,9.57576,14.786L13.0753,14.786Q13.7977,14.786,14.3086,14.2752Q14.8194,13.7643,14.8194,13.0418Q14.8194,12.3194,14.3086,11.8085Q13.7977,11.2977,13.0753,11.2977L10.6084,11.2977L10.9642,11.6534Q11.134,11.8292,11.1319,12.0701Q11.1298,12.311,10.9594,12.4814Q10.7891,12.6517,10.5482,12.6538Q10.3073,12.6559,10.134,12.4885L8.7706,11.1252Z" fill-rule="evenodd" fill-opacity="1" style="mix-blend-mode:passthrough"/></g></svg>