<svg xmlns="http://www.w3.org/2000/svg" xmlns:xlink="http://www.w3.org/1999/xlink" version="1.1" width="16" height="16" viewBox="0 0 16 16"><g><path d="M16,8C16,12.4183,12.4183,16,8,16C3.58172,16,0,12.4183,0,8C0,3.58172,3.58172,0,8,0C12.4183,0,16,3.58172,16,8ZM14.7368,8C14.7368,4.27934,11.7207,1.26316,8,1.26316C4.27934,1.26316,1.26316,4.27934,1.26316,8C1.26316,11.7207,4.27934,14.7368,8,14.7368C11.7207,14.7368,14.7368,11.7207,14.7368,8ZM10.2887,6.60449C10.4071,6.48604,10.4737,6.3254,10.4737,6.15789C10.4737,5.80908,10.1909,5.52631,9.8421,5.52631C9.6746,5.52631,9.51395,5.59285,9.39551,5.7113L8,7.10681L6.60449,5.7113C6.48604,5.59286,6.3254,5.52631,6.15789,5.52631C5.80908,5.52631,5.52631,5.80908,5.52631,6.15789C5.52631,6.3254,5.59285,6.48604,5.7113,6.60449L7.10681,8L5.7113,9.39551C5.59285,9.51395,5.52631,9.6746,5.52631,9.8421C5.52631,10.1909,5.80908,10.4737,6.15789,10.4737C6.3254,10.4737,6.48604,10.4071,6.60482,10.2884L8,8.89319L9.39551,10.2887C9.51395,10.4071,9.6746,10.4737,9.8421,10.4737C10.1909,10.4737,10.4737,10.1909,10.4737,9.8421C10.4737,9.6746,10.4071,9.51395,10.2887,9.39551L8.89318,8L10.2887,6.60449Z" fill-rule="evenodd" fill-opacity="1" style="mix-blend-mode:passthrough"/></g></svg>