<svg xmlns="http://www.w3.org/2000/svg" xmlns:xlink="http://www.w3.org/1999/xlink" version="1.1" width="16" height="16" viewBox="0 0 16 16"><g><path d="M1.23077,3.07692L1.23077,12.9231C1.23077,13.9692,2.03077,14.7692,3.07692,14.7692L4.73846,14.7692C5.10769,14.7692,5.35385,15.0154,5.35385,15.3846C5.35385,15.7538,5.10769,16,4.73846,16L2.46154,16C1.10769,16,0,14.8923,0,13.5385L0,2.46154C0,1.10769,1.10769,0,2.46154,0L13.5385,0C14.8923,0,16,1.10769,16,2.46154L16,4.73846C16,5.10769,15.7538,5.35385,15.3846,5.35385C15.0154,5.35385,14.7692,5.10769,14.7692,4.73846L14.7692,3.07692C14.7692,2.03077,13.9692,1.23077,12.9231,1.23077L3.07692,1.23077C2.03077,1.23077,1.23077,2.03077,1.23077,3.07692ZM11.3845,4.92315L3.99991,4.92315C3.69221,4.92315,3.38452,4.677,3.38452,4.30777C3.38452,4.00007,3.63068,3.69238,3.99991,3.69238L11.3845,3.69238C11.6922,3.69238,11.9999,3.93854,11.9999,4.30777C11.9999,4.677,11.6922,4.92315,11.3845,4.92315ZM8.67683,8.61546L3.99991,8.61546C3.69221,8.61546,3.38452,8.36931,3.38452,8.00007C3.38452,7.69238,3.63068,7.38469,3.99991,7.38469L8.67683,7.38469C9.04606,7.38469,9.29221,7.63084,9.29221,8.00007C9.29221,8.36931,8.98452,8.61546,8.67683,8.61546ZM11.9384,7.81543C11.7538,7.81543,11.6307,7.87697,11.5076,8.00004C11.2615,8.2462,11.2615,8.61543,11.5076,8.86158L13.9075,11.2615L7.63077,11.2615C7.26153,11.2615,7.01538,11.5076,7.01538,11.8769C7.01538,12.2461,7.26153,12.4922,7.63077,12.4922L13.9691,12.4922L11.5076,14.9538C11.2615,15.1999,11.2615,15.5692,11.5076,15.8153C11.7538,16.0615,12.123,16.0615,12.3692,15.8153L15.8153,12.3692C15.9456,12.2388,16.007,12.074,15.9993,11.9111C15.9998,11.8998,16,11.8884,16,11.8769C16,11.6305,15.8904,11.439,15.7078,11.3387L12.3692,8.00004C12.2461,7.87697,12.123,7.81543,11.9384,7.81543Z" fill-rule="evenodd" fill-opacity="1" style="mix-blend-mode:passthrough"/></g></svg>