<svg xmlns="http://www.w3.org/2000/svg" xmlns:xlink="http://www.w3.org/1999/xlink"  version="1.1" width="17.330078125" height="15.830078125" viewBox="0 0 17.330078125 15.830078125"><g><path d="M11.8682,8.83L15.0661,15.4543C15.1771,15.6841,15.4098,15.8302,15.665,15.8302C16.0323,15.8302,16.33,15.5324,16.33,15.1652C16.33,15.065,16.3074,14.9662,16.2636,14.8755L13.3451,8.83L16.665,8.83C17.0323,8.83,17.33,8.53227,17.33,8.165C17.33,7.79773,17.0323,7.5,16.665,7.5L12.703,7.5L9.26387,0.376045C9.1042,0.0452994,8.70664,-0.0933843,8.37589,0.0662858C8.24062,0.131591,8.13144,0.24077,8.06613,0.376045L4.62698,7.5L0.665,7.5C0.297731,7.5,0,7.79773,0,8.165C0,8.53227,0.297731,8.83,0.665,8.83L3.98491,8.83L1.06613,14.876C1.02261,14.9662,1,15.065,1,15.1652C1,15.5324,1.29773,15.8302,1.665,15.8302C1.92021,15.8302,2.15291,15.6841,2.26387,15.4543L5.46179,8.83L11.8682,8.83ZM11.2261,7.5L8.665,2.19477L6.10385,7.5L11.2261,7.5Z" fill-rule="evenodd"  fill-opacity="1"/></g></svg>
