<svg xmlns="http://www.w3.org/2000/svg" xmlns:xlink="http://www.w3.org/1999/xlink" version="1.1" width="18" height="13.209136962890625" viewBox="0 0 18 13.209136962890625"><g><path d="M7.57362,9.62792Q8.82754,8.374,8.82754,6.60526Q8.82753,5.34259,9.72298,4.44712Q10.6184,3.55167,11.8811,3.55167L15.1728,3.55167L13.1797,4.74248Q12.9623,4.87237,12.9004,5.11799Q12.8385,5.36358,12.9684,5.58102Q13.1464,5.87897,13.4937,5.87897Q13.662,5.87897,13.807,5.79233L17.7021,3.4651Q18,3.28718,18,2.94017Q18,2.59316,17.7021,2.41522L13.807,0.0880071Q13.5895,-0.0419239,13.3439,0.0199712Q13.0983,0.081861,12.9684,0.299301Q12.8385,0.51677,12.9004,0.762359Q12.9623,1.00798,13.1797,1.13788L15.1728,2.32867L11.8811,2.32867Q10.1124,2.32867,8.85845,3.5826Q7.60454,4.83652,7.60454,6.60526Q7.60454,7.86792,6.70908,8.76338Q5.81362,9.65884,4.55096,9.65884L0.611499,9.65884Q0.358212,9.65884,0.179106,9.83795Q0,10.0171,0,10.2703Q0,10.5236,0.179106,10.7027Q0.358212,10.8818,0.611499,10.8818L4.55096,10.8818Q6.3197,10.8818,7.57362,9.62792ZM0.179106,2.50777Q0,2.68688,0,2.94017Q0,3.19347,0.179109,3.37257Q0.358211,3.55167,0.611499,3.55167L4.55096,3.55167Q5.67047,3.55167,6.52317,4.27392Q6.69431,4.4188,6.91822,4.4188Q7.20186,4.4188,7.38503,4.20252Q7.54873,4.00924,7.52781,3.75681Q7.50689,3.50441,7.31365,3.34069Q6.11877,2.32867,4.55096,2.32867L0.611499,2.32867Q0.358212,2.32867,0.179106,2.50777ZM17.7021,10.7953Q18,10.6173,18,10.2703Q18,9.92333,17.7021,9.74541L13.807,7.41812Q13.5894,7.28824,13.3439,7.35012Q13.0983,7.412,12.9684,7.62943Q12.8385,7.8469,12.9004,8.09249Q12.9623,8.33811,13.1797,8.46802L15.1728,9.65884L11.8811,9.65884Q10.7202,9.65884,9.85355,8.88858Q9.66428,8.72034,9.41142,8.73521Q9.15858,8.75009,8.99028,8.93938Q8.82199,9.12873,8.83688,9.38159Q8.85176,9.63446,9.0411,9.80273Q10.2552,10.8818,11.8811,10.8818L15.1728,10.8818L13.1797,12.0726Q12.9623,12.2025,12.9004,12.4481Q12.8385,12.6937,12.9684,12.9112Q13.1465,13.2091,13.4937,13.2091Q13.662,13.2091,13.807,13.1225L17.7021,10.7953Z" fill-rule="evenodd" fill-opacity="1"/></g></svg>