<svg xmlns="http://www.w3.org/2000/svg" xmlns:xlink="http://www.w3.org/1999/xlink" version="1.1" width="16" height="16" viewBox="0 0 16 16"><g><path d="M10.0587,3.53083C10.2539,3.18683,10.3653,2.78909,10.3653,2.36532C10.3653,1.05899,9.30632,0,7.99998,0C6.69365,0,5.63466,1.05899,5.63466,2.36532C5.63466,2.78909,5.7461,3.18683,5.94127,3.53084L3.53084,5.94127C3.18683,5.7461,2.78909,5.63466,2.36532,5.63466C1.05899,5.63466,0,6.69365,0,7.99998C0,9.30632,1.05899,10.3653,2.36532,10.3653C2.78909,10.3653,3.18683,10.2539,3.53084,10.0587L5.94128,12.4691C5.7461,12.8132,5.63466,13.2109,5.63466,13.6347C5.63466,14.941,6.69365,16,7.99998,16C9.30632,16,10.3653,14.941,10.3653,13.6347C10.3653,13.2109,10.2539,12.8132,10.0587,12.4691L12.4691,10.0587C12.8132,10.2539,13.2109,10.3653,13.6347,10.3653C14.941,10.3653,16,9.30632,16,7.99998C16,6.69365,14.941,5.63466,13.6347,5.63466C13.2109,5.63466,12.8132,5.7461,12.4691,5.94128L10.0587,3.53083ZM9.16551,4.42403C8.8215,4.61921,8.42376,4.73065,7.99998,4.73065C7.57621,4.73065,7.17846,4.61921,6.83446,4.42403L4.42403,6.83446C4.61921,7.17846,4.73065,7.57621,4.73065,7.99998C4.73065,8.42376,4.61921,8.82151,4.42403,9.16551L6.83447,11.576C7.17848,11.3808,7.57622,11.2693,7.99998,11.2693C8.42375,11.2693,8.82149,11.3808,9.1655,11.576L11.576,9.1655C11.3808,8.82149,11.2693,8.42375,11.2693,7.99998C11.2693,7.57622,11.3808,7.17848,11.576,6.83447L9.16551,4.42403ZM7.99998,1.26316C8.60869,1.26316,9.10215,1.75661,9.10215,2.36532C9.10215,2.97404,8.60869,3.46749,7.99998,3.46749C7.39127,3.46749,6.89782,2.97404,6.89782,2.36532C6.89782,1.75661,7.39127,1.26316,7.99998,1.26316ZM2.36532,6.89782C2.97404,6.89782,3.46749,7.39127,3.46749,7.99998C3.46749,8.60869,2.97404,9.10215,2.36532,9.10215C1.75661,9.10215,1.26316,8.60869,1.26316,7.99998C1.26316,7.39127,1.75661,6.89782,2.36532,6.89782ZM13.6347,6.89782C14.2434,6.89782,14.7368,7.39127,14.7368,7.99998C14.7368,8.60869,14.2434,9.10215,13.6347,9.10215C13.026,9.10215,12.5325,8.60869,12.5325,7.99998C12.5325,7.39127,13.026,6.89782,13.6347,6.89782ZM7.99998,12.5325C8.60869,12.5325,9.10215,13.026,9.10215,13.6347C9.10215,14.2434,8.60869,14.7368,7.99998,14.7368C7.39127,14.7368,6.89782,14.2434,6.89782,13.6347C6.89782,13.026,7.39127,12.5325,7.99998,12.5325Z" fill-rule="evenodd" fill-opacity="1" style="mix-blend-mode:passthrough"/></g></svg>