<svg xmlns="http://www.w3.org/2000/svg" xmlns:xlink="http://www.w3.org/1999/xlink" version="1.1" width="16.014999389648438" height="16" viewBox="0 0 16.014999389648438 16"><g><path d="M1.23077,12.9231L1.23077,3.07692C1.23077,2.03077,2.03077,1.23077,3.07692,1.23077L12.9231,1.23077C13.9692,1.23077,14.7692,2.03077,14.7692,3.07692L14.7692,4.73846C14.7692,5.10769,15.0154,5.35385,15.3846,5.35385C15.7538,5.35385,16,5.10769,16,4.73846L16,2.46154C16,1.10769,14.8923,0,13.5385,0L2.46154,0C1.10769,0,0,1.10769,0,2.46154L0,13.5385C0,14.8923,1.10769,16,2.46154,16L4.73846,16C5.10769,16,5.35385,15.7538,5.35385,15.3846C5.35385,15.0154,5.10769,14.7692,4.73846,14.7692L3.07692,14.7692C2.03077,14.7692,1.23077,13.9692,1.23077,12.9231ZM11.3845,4.92315L3.99991,4.92315C3.69221,4.92315,3.38452,4.677,3.38452,4.30777C3.38452,4.00007,3.63068,3.69238,3.99991,3.69238L11.3845,3.69238C11.6922,3.69238,11.9999,3.93854,11.9999,4.30777C11.9999,4.677,11.6922,4.92315,11.3845,4.92315ZM8.67683,8.61546L3.99991,8.61546C3.69221,8.61546,3.38452,8.36931,3.38452,8.00007C3.38452,7.69238,3.63068,7.38469,3.99991,7.38469L8.67683,7.38469C9.04606,7.38469,9.29221,7.63084,9.29221,8.00007C9.29221,8.36931,8.98452,8.61546,8.67683,8.61546ZM15.8349,11.4349C15.9502,11.3195,16.015,11.1631,16.015,11C16.015,10.6603,15.7397,10.385,15.4,10.385C15.2369,10.385,15.0805,10.4498,14.9651,10.5651L10.9001,14.6301L8.83487,12.5649C8.71954,12.4495,8.56311,12.3847,8.4,12.3847C8.06035,12.3847,7.785,12.6601,7.785,12.9997C7.785,13.1628,7.8498,13.3193,7.96544,13.4349L10.146,15.6154Q10.4584,15.9278,10.9001,15.9278Q11.3418,15.9278,11.6542,15.6155L15.8349,11.4349Z" fill-rule="evenodd" fill-opacity="1" style="mix-blend-mode:passthrough"/></g></svg>