<?xml version="1.0" encoding="UTF-8"?>
<svg width="24px" height="24px" viewBox="0 0 24 24" version="1.1" xmlns="http://www.w3.org/2000/svg" xmlns:xlink="http://www.w3.org/1999/xlink">
    <title>条件分支</title>
    <g id="流程设计器" stroke="none" stroke-width="1" fill-rule="evenodd">
        <path d="M12.1126818,0 C14.5907594,-4.55215481e-16 16.5996383,2.00887886 16.5996383,4.48695652 C16.5996383,6.70240329 14.9940043,8.54283414 12.8829313,8.90805396 L12.882,12.869 L20.1264223,12.8695652 C21.0815746,12.8695652 21.8649211,13.5674372 21.9408678,14.4550496 L21.9469027,14.5967016 L21.9469027,18.4347826 L20.3286979,18.4347826 L20.3286979,14.5967016 C20.3286979,14.5083802 20.2658077,14.4339945 20.1801951,14.4116526 L20.1264223,14.4047976 L12.882,14.404 L12.8828241,18.4347826 L11.1837091,18.4347826 L11.183,14.404 L3.94437421,14.4047976 C3.85127944,14.4047976 3.77287345,14.4644631 3.74932409,14.545686 L3.74209861,14.5967016 L3.74209861,18.4347826 L2.12389381,18.4347826 L2.12389381,14.5967016 C2.12389381,13.6905241 2.8594826,12.9473433 3.79506651,12.8752906 L3.94437421,12.8695652 L11.183,12.869 L11.1836019,8.90805396 C9.07252894,8.54283414 7.46689492,6.70240329 7.46689492,4.48695652 C7.46689492,2.00887886 9.47577378,4.55215481e-16 11.9538514,0 L12.1126818,0 Z M10.619469,18.4347826 L13.4513274,18.4347826 C14.2333235,18.4347826 14.8672566,19.0687157 14.8672566,19.8507118 L14.8672566,22.5840708 C14.8672566,23.3660669 14.2333235,24 13.4513274,24 L10.619469,24 C9.83747292,24 9.20353982,23.3660669 9.20353982,22.5840708 L9.20353982,19.8507118 C9.20353982,19.0687157 9.83747292,18.4347826 10.619469,18.4347826 Z M1.4159292,18.4347826 L4.24778761,18.4347826 C5.02978372,18.4347826 5.66371681,19.0687157 5.66371681,19.8507118 L5.66371681,22.5840708 C5.66371681,23.3660669 5.02978372,24 4.24778761,24 L1.4159292,24 C0.633933098,24 4.43042936e-16,23.3660669 0,22.5840708 L0,19.8507118 C-9.57669028e-17,19.0687157 0.633933098,18.4347826 1.4159292,18.4347826 Z M19.7522124,18.4347826 L22.5840708,18.4347826 C23.3660669,18.4347826 24,19.0687157 24,19.8507118 L24,22.5840708 C24,23.3660669 23.3660669,24 22.5840708,24 L19.7522124,24 C18.9702163,24 18.3362832,23.3660669 18.3362832,22.5840708 L18.3362832,19.8507118 C18.3362832,19.0687157 18.9702163,18.4347826 19.7522124,18.4347826 Z" id="条件分支"></path>
    </g>
</svg>