<?xml version="1.0" encoding="UTF-8"?>
<svg width="24px" height="24px" viewBox="0 0 24 24" version="1.1" xmlns="http://www.w3.org/2000/svg" xmlns:xlink="http://www.w3.org/1999/xlink">
    <title>延时处理</title>
    <g id="流程设计器" stroke="none" stroke-width="1" fill-rule="evenodd">
        <g id="延时处理" >
            <path d="M12,0 C18.627417,0 24,5.372583 24,12 C24,18.627417 18.627417,24 12,24 C5.372583,24 0,18.627417 0,12 C0,5.372583 5.372583,0 12,0 Z M20.5714286,13.7142857 C21.0448155,13.7142857 21.4285714,13.3305298 21.4285714,12.8571429 C21.4285714,12.3837559 21.0448155,12 20.5714286,12 L20.5714286,12 L12.857,11.999 L12.8571429,4.28571429 C12.8571429,3.84874174 12.5301556,3.48814116 12.1075182,3.43524979 L12,3.42857143 C11.5266131,3.42857143 11.1428571,3.81232736 11.1428571,4.28571429 L11.1428571,4.28571429 L11.1428571,12.8571429 C11.1428571,13.3305298 11.5266131,13.7142857 12,13.7142857 L12,13.7142857 Z"></path>
        </g>
    </g>
</svg>